<?xml version="1.0" encoding="utf-8"?>
<!-- Generator: Adobe Illustrator 26.0.0, SVG Export Plug-In . SVG Version: 6.00 Build 0)  -->
<svg version="1.1" id="Layer_1" xmlns="http://www.w3.org/2000/svg" xmlns:xlink="http://www.w3.org/1999/xlink" x="0px" y="0px"
	 viewBox="0 0 1049 254" style="enable-background:new 0 0 1049 254;" xml:space="preserve">
<style type="text/css">
	.st0{fill:#FFFFFF;}
</style>
<path class="st0" d="M1.8-1h1049v254H1.8V-1z M1016.2,122.5c0.3-1.1,0.1-1.9-0.6-2.3c-1-0.7-1.6-0.5-1.8,0.5l-0.3,0.3
	c-0.8-0.1-1.3-0.6-1.5-1.5c1.7-3.1-1.4-1.9-2.3-1.2c-2.1,1.4-3.5,2.4-4.2,3c-13.5,11.1-27.2,22-41,32.8c-3.8,3-7.9,5.5-12.3,7.5
	c-0.7,0.3-1.5-0.2-1.4-1c0.4-4.7,1.4-9.4,2.9-14c1.7-5,6.2-18.8,10.3-21.7c15.8-11.3,29.7-28.2,40.4-44.7c4-6.2,11.7-17.5,2.8-21.6
	c-0.2-0.1-0.4-0.3-0.5-0.5c-6.5-14.2-28.2,13.8-32.3,19.3c-11.2,15.4-20.4,30.6-27.5,45.7c-0.6,1.3-1.5,2.4-2.6,3.2
	c-7.9,6-15.9,11.8-23.9,17.7c-6.5,4.8-13.6,8.5-21.2,11.1c-1.6,0.6-3.2,0.8-4.9,0.8c-0.6,0-1-0.5-1-1.1c0.6-6.6,2.7-12.8,6.1-18.5
	c0.3-0.5,1-0.6,1.5-0.3c1,0.8,1.9,1.6,2.7,2.5c6.7,7.3,15.7,2.6,21.5-3c8.1-7.9,19.3-25.9,8.8-35.9c-4-3.8-5.3-7.8-11.9-7.1
	c-12.5,1.4-26.8,20.4-32.9,31.1c-1.7,3-3.5,5.6-5.2,7.6c-9.9,11.8-21.9,28.6-34.7,34.9c-0.6,0.3-1.3,0-1.4-0.6
	c-2.6-10.3,1.9-24.3,5.8-34c6.5-16.4,14.6-32.1,24.3-47.1c0.2-0.2,0.4-0.4,0.7-0.4c10.7-1.3,21.5-2,32.5-2.2
	c5.9-0.1,10.5-0.6,16.4,0.9c0.6,0.2,1.2-0.3,1.2-0.9l0.6-5.1c0-0.3,0-0.5-0.2-0.7c-6.7-8.7-28.3-8.9-38-8.8c-1.3,0-1.6-0.5-0.8-1.6
	c4.5-6.3,8.4-13,11.7-19.9c1.5-3.1,0.7-5.2-2.3-6.3c-0.4-0.1-0.7-0.5-0.6-0.9c0-3.2-2.6-2.9-4.3-1.2c-8.6,8.5-16.1,18-22.6,28.2
	c-1.7,2.7-4.1,4.9-6.9,5.5c-12.9,2.3-25.3,6-37.2,11.2c-0.7,0.3-1.4,1-2,2c-0.3,0.5-0.9,0.6-1.4,0.3l-5.1-3.4
	c-0.1-0.1-0.2-0.2-0.2-0.2c-7.2-10-24.9,7.3-29.1,11.9c-13.7,14.9-23.5,32.5-29.3,52.9c-2.2,7.7-2.5,18.5,6.9,20.7
	c0.2,0.1,0.4,0.2,0.6,0.4c4.4,5.9,9.6,4.3,14.7,0.3c3.1-2.4,6-5.1,8.7-8c0.5-0.5,1.4-0.4,1.7,0.3c1.5,3.6,4,6.1,7.6,7.6
	c0.1,0.1,0.3,0.2,0.4,0.3c5,6.2,11.1,4.9,17.4,1c5-3,9.4-6.8,13.3-11.2c1-1.1,1.6-1,1.8,0.6c0.4,4.4,2.2,8,5.2,11
	c2.2,2.2,6,3.9,8.9,6.1c8.7,6.6,20.5-2,25.3-9.2c3.6-5.4,6.2-9.3,7.8-11.6c0.4-0.6,1.4-0.6,1.7,0.1c1.1,2.2,2.1,3.8,3,4.5
	c3.1,2.8,6.5,7.2,10,8.8c5.1,2.3,11.5,0.8,16.6-1.3c8.6-3.7,16.6-8.4,24-14.2c1-0.8,1.6-0.6,1.6,0.8c0,0.9,0,1.8,0.1,2.6
	c0.1,5.2,1.6,9.6,6,12.6c1.5,1,2.8,2,3.9,3c14.1,12.6,40.7-17.5,49.3-26.7C1003.7,137.1,1010.1,129.9,1016.2,122.5z M99.9,171.5
	l2.7-0.4c1.1,1.1,2,2.3,2.7,3.4c0.9,1.3,1.5,1.5,1.8,0.6c0.2-0.4,0.7-0.6,1-0.3c0.1,0,0.2,0.1,0.2,0.1c0.8,0.5,1.2,0.2,1.2-0.7
	c-0.2-3,0.9-5.6,3.1-7.6c1-0.9,1.5-0.7,1.3,0.7c-0.1,0.9-0.1,1.8-0.1,2.9c0,3.9,1.6,6.7,4.7,8.5c0.2,0.1,0.4,0.3,0.4,0.5
	c4.8,13.2,19.7-1.4,24.8-6.6c13.1-13.1,24.6-27.5,34.6-43.3c0.1-0.1,0.2-0.2,0.3-0.3c5-2.9,10.3-4.9,16-6c1.4-0.3,1.7,0.2,1.1,1.5
	c-4.9,9.1-8.9,18.6-12.1,28.5c-2,6.2-2,13.2,4.2,16.7c1.1,0.7,2.6,0.4,3.7,1.7c6.6,7.6,16.4-1.2,20.5-6.1
	c10.5-12.6,21.3-24.9,32.3-37c1.6-1.7,2.1-1.4,1.7,0.9c-0.2,1-0.4,2.1-0.6,3.1c-1.1,6.4,1.1,13.6,7.2,16.6c5.3,2.6,5.3,6.9,12.7,4.5
	c2.5-0.8,4.7-2.2,6.5-4.2c1.1-1.1,1.4-0.9,1.1,0.6c-1,4.5-0.2,8.6,2.4,12.2c0.4,0.5,1.2,1.2,2.3,2c2.2,1.5,3,4,4.8,5.2
	c2.7,1.8,5.9,1.9,9.4,0.3c2-0.9,3.8-1.9,5.6-3.1c5.4-3.6,10.8-8.2,16.3-13.9c5.9-6.1,11.7-12.3,17.3-18.5c0.8-0.9,1.4-0.8,1.7,0.4
	c0.6,2.3,1.7,4.2,3.3,5.8c1,1,2.5,2.1,4.6,3c1.5,0.7,3,1.4,4.4,1.9c1.1,0.4,1.2,1,0.2,1.7c-10.4,7.8-20,16.5-29,25.9
	c-6.4,6.8-15.5,17.1-11.1,26.3c1.1,2.4,2.9,2.4,3.6,6c1.5,6.8,12.8,4.3,17.1,2.7c15.1-5.5,29.3-13.6,42.7-24.4
	c6.2-5,15-14.3,14.9-22.4c0-5.4-4.4-10.9-6.3-16c-0.2-0.4,0-0.9,0.4-1.2c6.7-4.3,13.7-8.2,20.9-11.6c1.7-0.8,2.2-0.4,1.3,1.4
	c-3.2,6.5-5.9,13.4-8,20.7c-2,6.8-0.2,14.4,7.4,16.1c0.2,0.1,0.4,0.2,0.6,0.4c5.8,7.3,14.7,1.4,19-3.6
	c11.8-13.5,23.6-26.9,35.6-40.2c0.1-0.1,0.3-0.2,0.5-0.2l0.3,0c0.1,0,0.2,0.1,0.2,0.3c-2.4,8.2-1.9,17.3,6.1,21.8
	c1.1,0.6,2.2,1.4,3.3,2.5c4.8,4.4,10.1,2.6,14.7-1.2c1.7-1.4,3.4-2.9,4.9-4.5c1-1,1.4-0.8,1.4,0.6c-0.2,5.5,1.7,10.1,5.8,13.8
	c2.1,1.9,4,4.4,5.8,5.6c10.8,7.5,29-3.4,38.1-10.4c0.2-0.2,0.6-0.3,0.9-0.2c3.8,1-16.8,39.4,3.5,41.7c0.3,0,0.6,0.2,0.7,0.4
	c2.4,3.6,9,3.6,8.3-1.5c0-0.3-0.2-0.6-0.5-0.7l-2.9-1.7c-0.3-0.2-0.5-0.4-0.5-0.8c-0.1-1.3-0.1-2.9,0.2-4.9c1-8.1,2.9-15.7,5.8-22.9
	c0.5-1.3,1.1-1.3,1.8-0.1c5.3,8.8,15.1,9.2,23.6,5.5c21.5-9.5,38.1-27.4,53.1-45.5c0.1-0.1,0.2-0.3,0.2-0.4c0.9-3.9,0.6-5-1-3.6
	c-1.3-0.6-2.3-0.6-2.9,0c0.8-0.6,1.2-1.4,1.2-2.4c0-0.6-0.4-1-0.9-1.1l-0.5,0c-0.3,0-0.5,0.1-0.7,0.2c-5.8,5-65.5,54.4-69.6,39.3
	c-1-3.7,1.1-6,4.1-8.3c16.8-12.9,34.3-28.3,47.3-45.1c1.8-2.3,1.6-4.3-0.5-5.7c-0.2-0.1-0.3-0.3-0.4-0.5l-0.6-1.9
	c-0.1-0.4-0.5-0.7-0.9-0.7c-4.2-0.3-11.3,6.9-14.2,9.5c-7.7,6.8-12,10.5-18.1,15.7c-0.2,0.2-0.6,0.1-0.7-0.2c0-0.2,0-0.4,0.1-0.7
	c8.9-18.2,19.3-36.1,31.1-53.6c2-2.9,3.3-6.3-1.4-7.4l-1-0.8c0-0.1,0-0.2,0-0.3c0-0.2-0.2-0.3-0.3-0.3l-0.9-0.1
	c-0.5-0.1-0.8-0.5-0.8-1c0.1-3.2-1.7-4.1-5.3-2.8c-0.2,0.1-0.4,0.2-0.5,0.4c-15.3,22.6-28.6,45.9-40,69.7c-0.6,1.3-1.5,2.5-2.7,3.4
	c-12.4,9.6-21.4,16.2-26.9,20c-5.7,3.8-16.8,10.6-23.7,10.1c-0.6,0-1-0.6-0.9-1.1c0.8-6.6,2.8-12.8,6.2-18.5
	c0.3-0.6,1.1-0.7,1.5-0.2c0.9,0.8,1.8,1.7,2.6,2.6c14.2,15.1,39.8-20.5,33.8-34.5c-1.1-2.6-7.7-9.8-9.9-10.9
	c-12.5-6.5-31.9,19.6-37.2,28.5c-4.3,7.1-14.1,13.8-20.9,18.5c-1.8,1.2-3.1,1.9-4,2.1c-2,0.4-2.7-0.3-2.2-2.3
	c2.2-9,7.1-19.8,5.1-28.8c-0.1-0.3-0.3-0.6-0.6-0.7l-7.4-3.3c-0.2-0.1-0.3-0.2-0.4-0.4c-0.3-0.5-0.7-0.9-1.1-1.4
	c-7.8-7.5-46.5,40.9-51.7,47.4c-0.7,0.9-2.2,2-3,3c-0.1,0.2-0.3,0.3-0.5,0.4c-0.8,0.4-1,0.2-0.7-0.7c9.7-23.7,21-45.5,33.8-69.4
	c5-9.3,9-19,12.1-29.2c0.4-1.2-0.2-2.1-1.6-2.8c-1.3-0.5-2.1-1.5-2.4-2.8c-0.1-0.5-0.6-0.8-1.1-0.8l-1.8,0.2c-0.3,0-0.5,0.2-0.7,0.4
	c-15.3,21.6-26.7,43.9-38.2,67.2c-0.1,0.3-0.5,0.5-0.8,0.6c-17.2,1.2-30.3,7.8-45,16.3c-0.2,0.1-0.5,0.2-0.7,0.1l-20.9-5
	c-0.7-0.2-1-1-0.6-1.6c5.7-8,13.5-13.3,21.5-18.8c5.5-3.8,11.4-6.8,17.7-9.1c1.5-0.6,2-0.1,1.2,1.4l-0.3,0.7c-0.1,0.3-0.1,0.6,0,0.8
	c0.6,1.3,1.5,0.1,1.8-0.6c0.2-0.4,0.5-0.8,0.8-1.1c1.6-1.4,1.8-1.2,0.5,0.5c-1,1.2-1.6,2.3-1.8,3.3c-0.2,0.7,0,1.2,0.6,1.5
	c0.3,0.1,0.7,0.1,1-0.2c4.4-3.7,5.2-7.6,2.6-11.8c-2.4-3.8-7.1-4.8-11.2-4.2c-15.7,2.1-40.1,13.5-45,30.6c-0.1,0.2-0.2,0.4-0.4,0.5
	c-10.4,7.7-20.2,15.1-30.3,23.8c-3.2,2.8-6.5,5.4-9.8,7.9c-1.8,1.4-2.3,1-1.5-1.1c3-8,6.7-15.6,11.1-22.9c4-6.5,7.9-13.2,11.6-19.9
	c2-3.7-0.9-4.2-2.4-6.3c-0.7-1-1.4-2-2-3.1c-0.1-0.3-0.4-0.4-0.7-0.5c-8.5-1.4-17.2,21.5-23.2,27.2c-5.7,5.4-13.8,12.4-21.1,15.3
	c-0.7,0.3-1.5-0.3-1.3-1.1c1-6.5,2.9-12.5,4.7-18.8c0.8-2.8,0.8-5.7,1.1-8.6c0.2-2.1-0.5-3.4-2.2-4.2l-6.3-2.7
	c-0.2-0.1-0.3-0.2-0.4-0.3c-2.8-3.9-6.7-2.2-10,0.3c-15.9,12.5-30.8,30.3-43.3,45.7c-0.5,0.6-0.9,1.1-1.4,1.5
	c-2.2,2.1-2.8,1.7-1.6-1.1c3.8-9.1,7.1-16.6,9.9-22.4c6.1-12.6,13.9-27.9,23.4-45.8c4-7.6,7.6-15.9,10.7-24.9
	c0.6-1.7,0.8-3.3,0.7-4.9c0-0.5-0.3-0.8-0.8-0.9c-1.6-0.3-2.5-1.3-2.9-2.9c-0.1-0.3-0.3-0.6-0.7-0.7c-6.8-2.3-35.7,56.5-39.8,64.9
	c-0.2,0.4-0.7,0.6-1.2,0.5c-4.2-1.1-8.4-1.6-12.8-1.3c-0.6,0-1.1-0.5-1.1-1.1c0.2-4-1-7.6-3.4-10.5c-3.5-4.1-3.5-7.6-10.2-7.8
	c-13-0.3-30,10.8-39.4,19.2c-0.1,0.1-0.2,0.1-0.4,0.1c-1.6-0.4,4.8-9,5.7-9.9c17.8-17.9,33.1-36.8,45.7-56.6
	c3.3-5.2-4.1-6.5-5.6-9.7c-0.9-1.8-2.3-2.5-4.3-1.9c-6.7,1.8-11.6,7.3-17,13.5c-21.6,24.9-38.7,54.6-51.2,85c-4,9.7-8.1,20.5-9.2,31
	c-0.2,2.1,0.5,3.5,2.1,4.1c0.3,0.1,0.5,0.4,0.6,0.7C98.8,171.9,99.2,172.1,99.9,171.5z M686.1,183.6l0.6-0.1
	c0.5-0.1,0.8-0.6,0.7-1.1c-0.4-3-1.4-5.9-2.9-8.6c-1-1.7-1.2-3.6-0.7-5.5c1.9-7.7,4.4-15.1,7.7-22.3c0.5-1.1,1.1-1.1,1.8-0.1
	c2.5,3.8,6.1,5.2,10.9,4.1c3.5-0.8,7.4-1.5,10.7-3c17.8-8.2,33.7-19.2,47.6-33c9.3-9.2,23.6-26.4,21.9-40.4
	c-0.7-5.4-3.7-10.6-5.8-15c-6.3-13.3-26.6-12.3-38.1-9c-33.8,9.8-78.5,42-76,81c0.5,7.8,2.7,16.5,6.5,25.9c0.1,0.2,0.1,0.5,0,0.7
	c-5.1,13.7-3.5,22.8,10.8,28.5c1.8,0.7,2.8,0.1,3.6-1.5C685.6,183.8,685.8,183.7,686.1,183.6z M37.9,158.7c-0.3-0.3-0.5-0.7-0.3-1.1
	c1.9-4.8,8.8-25,12.7-26.4c9.1-3.3,18.1-5.6,27.1-6.9c0.8-0.1,1.3,0.6,1.1,1.3c-4.8,12.4-10.3,24.4-14.4,37.1
	c-1.2,3.7-2,10.1,1,13.2c0.2,0.2,0.5,0.3,0.8,0.3c2-0.2,3,0.6,3.1,2.5c0,0.4,0.3,0.8,0.7,0.9c0.8,0.2,1.5,0.2,2.2-0.1
	c1.6-0.8,4.2-7.1,4.9-8.9c8.4-23.4,18-46.2,28.7-68.6c5.1-10.7,8.7-20.9,10.8-30.7c1.1-5.2-0.2-9.7-3.9-13.5c-1.9-2-3.6-5.3-6-6.3
	c-10.1-4.5-33.2,20-39.7,27.5C56,91.4,46.4,104.8,38,119c-0.2,0.2-0.4,0.4-0.7,0.5c-4.8,0.8-15.7,3.6-15.8,10c0,0.2,0.1,0.4,0.2,0.6
	l0.9,1.2c0.2,0.3,0.2,0.6,0.1,0.9c-1,2.5-0.4,4.2,1.7,5.1c0.4,0.2,1.4,0.4,2.9,0.6c0.6,0.1,0.9,0.6,0.8,1.2c-0.4,2.1-0.9,5.4-1.4,10
	c-0.4,3.8,0.1,7.2,1.6,10.1c0.1,0.2,0.3,0.4,0.6,0.5c2.3,0.8,4.2,2.2,5.6,4.2c0.3,0.5,1,0.6,1.5,0.1l3.1-2.8c0.5-0.4,0.4-1.1,0-1.5
	L37.9,158.7z M320,97.3l2.4-2.6l9.2-9.6c1.1-1.1,1.6-2.5,1.5-4.1c-0.1-1.2-0.8-2-2.2-2.3c-0.3-1.5-0.9-1.8-1.8-0.8l-0.5,0.8
	c-0.5,0.3-0.7,0.2-0.8-0.2c1.5-1.2,1.8-2.5,0.9-4.2c-0.2-0.3-0.4-0.5-0.8-0.5c-6.1-0.7-14.7,15.2-13,20.6c0.1,0.4,0.5,0.7,0.9,0.7
	C317.7,95.1,317.2,101.5,320,97.3z"/>
<g>
	<path class="st0" d="M1039.4,145.3l-0.3,0.4c-0.3,0.8-0.7,1.4-1.2,2c-5.4,7.4-11,14.7-16.5,21.9c-0.7,0.9-0.8,0.8-0.3-0.4
		c0-0.1,0.1-0.3,0.2-0.4c3.3-4,7-9.3,11.2-15.7l-0.4-1.1c-0.6,0.9-1.2,1.7-1.9,2.4c-2.1,2.4-2.2,2.2-0.3-0.5l7.5-10.5
		c1.8-4.6-1.5-2.8-2.5-1.9c-2.2,2.1-3.7,3.6-4.4,4.4c-14.5,16.5-29.1,32.7-43.9,48.8c-4.1,4.4-8.5,8.2-13.2,11.2
		c-0.7,0.5-1.6-0.3-1.5-1.5c0.4-7,1.5-13.9,3.1-20.8c1.8-7.4,6.7-27.9,11-32.3c16.9-16.8,31.8-41.9,43.2-66.5
		c4.3-9.3,12.5-26.1,3-32.1c-0.2-0.1-0.4-0.4-0.5-0.7c-6.9-21.1-30.2,20.5-34.6,28.8c-12,22.9-21.8,45.5-29.4,68
		c-0.6,1.9-1.6,3.5-2.8,4.7c-8.5,8.8-17,17.6-25.5,26.3c-7,7.1-14.6,12.6-22.7,16.6c-1.7,0.8-3.4,1.2-5.2,1.1c-0.6,0-1.1-0.8-1-1.6
		c0.7-9.9,2.9-19,6.5-27.5c0.3-0.8,1.1-1,1.6-0.4c1,1.1,2,2.3,2.9,3.7c7.2,10.8,16.8,3.9,23.1-4.5c8.7-11.7,20.7-38.5,9.4-53.4
		c-4.3-5.6-5.7-11.7-12.8-10.5c-13.4,2.1-28.6,30.3-35.3,46.2c-1.9,4.5-3.7,8.3-5.6,11.4c-10.6,17.5-23.5,42.5-37.2,51.9
		c-0.6,0.4-1.3,0-1.5-1c-2.8-15.3,2.1-36.2,6.2-50.5c7-24.4,15.6-47.7,26-70c0.2-0.4,0.4-0.6,0.8-0.7c11.5-1.9,23.1-3,34.8-3.3
		c6.3-0.2,11.2-0.9,17.6,1.3c0.6,0.2,1.3-0.4,1.3-1.3l0.6-7.5c0-0.4,0-0.8-0.2-1.1c-7.1-13-30.3-13.3-40.7-13
		c-1.4,0-1.7-0.8-0.9-2.3c4.8-9.4,9-19.3,12.6-29.6c1.6-4.6,0.8-7.7-2.5-9.4c-0.4-0.2-0.7-0.8-0.7-1.4c0-4.7-2.8-4.3-4.6-1.8
		c-9.2,12.7-17.3,26.7-24.2,42c-1.8,4-4.3,7.4-7.4,8.1c-13.8,3.4-27.1,9-39.8,16.7c-0.7,0.4-1.5,1.5-2.2,3c-0.3,0.7-1,0.9-1.5,0.5
		l-5.4-5c-0.1-0.1-0.2-0.2-0.3-0.4c-7.7-14.9-26.6,10.9-31.2,17.8c-14.7,22.1-25.1,48.3-31.4,78.7c-2.4,11.4-2.7,27.5,7.4,30.7
		c0.2,0.1,0.5,0.3,0.6,0.6c4.7,8.8,10.3,6.4,15.8,0.5c3.4-3.6,6.5-7.6,9.3-12c0.5-0.8,1.5-0.6,1.8,0.4c1.6,5.3,4.3,9,8.1,11.2
		c0.2,0.1,0.3,0.2,0.4,0.4c5.4,9.2,11.9,7.2,18.6,1.5c5.4-4.5,10.1-10.1,14.3-16.7c1.1-1.7,1.7-1.4,1.9,0.8
		c0.5,6.5,2.3,11.9,5.5,16.4c2.4,3.3,6.4,5.8,9.5,9.1c9.3,9.8,21.9-2.9,27.1-13.6c3.8-8.1,6.6-13.8,8.3-17.3
		c0.5-0.9,1.5-0.8,1.8,0.2c1.2,3.3,2.3,5.6,3.2,6.7c3.4,4.1,7,10.7,10.7,13c5.5,3.4,12.3,1.2,17.7-2c9.2-5.5,17.8-12.5,25.7-21.2
		c1.1-1.2,1.7-0.8,1.7,1.1c0,1.3,0,2.6,0.1,3.9c0.1,7.7,1.7,14.2,6.5,18.7c1.6,1.5,3,3,4.2,4.5c15.1,18.7,43.6-26,52.8-39.7
		c7-10.4,13.9-21.1,20.4-32.2C1041,146.3,1040.2,145.3,1039.4,145.3z M935.3,80.3l-29.7,1.1c-1.6,1.4-3.4,1.9-5.3,1.4
		c-0.6-0.1-1-0.9-0.9-1.7c0.1-0.6,0.3-1.2,0.7-1.6l2.2-0.3c11.4-0.9,22.8-0.8,34.3,0.4C942.9,81,942.4,81.2,935.3,80.3z M934.5,76.6
		l7.5,1.1c0.2,0,0.4,0.3,0.3,0.6l-0.1,0.4c0,0.1-0.2,0.2-0.5,0.1l-8.8-1.8c-10.4,0.5-20.9,0.5-31.3,0c-0.2,0-0.3-0.1-0.2-0.4
		c0.1-0.2,0.2-0.3,0.3-0.3L934.5,76.6z M915.9,40.3l-9,19.9c-0.1,0.2-0.3,0.2-0.4,0.1l-0.1,0c-0.1-0.1-0.2-0.4-0.1-0.5l9-19.9
		c0.1-0.2,0.3-0.2,0.4-0.1l0.1,0C915.9,39.8,916,40.1,915.9,40.3z M916,30.3L916,30.3c0.3,0.3,0.3,0.7,0.2,1l-17.4,34.8
		c-0.2,0.3-0.5,0.4-0.7,0.2l0,0c-0.2-0.2-0.3-0.7-0.1-1l17.4-34.8C915.5,30.2,915.8,30.1,916,30.3z M913.3,27.2
		c0.9-1.4,1.5-1.2,1.9,0.5c0.4,1.6,0.1,2.3-0.7,2.1c-0.3,1.8-1,3.3-2.1,4.4l-0.5,1.5l-16,30.8c-0.1,0.3-0.4,0.4-0.6,0.4
		c-1.6-0.1,7.6-17.4,10.7-23.4l-0.3-0.7c-0.3,0.5-12.7,24.5-12.8,24.5c-0.2-0.1-0.4-0.4-0.3-0.7c0.9-2.5,1.9-4.9,3-7.2
		C901.2,48.3,907.1,37.6,913.3,27.2z M887.5,67.3l7.4-14.2l5.9-11.9c0.1-0.3,0.4-0.4,0.6-0.3c0.2,0.1,0.2,0.3,0.1,0.6
		c-2.2,3.9-4.3,7.8-6.3,11.8c-0.8,1.5-7.2,14.9-7.6,14.7C887.4,67.8,887.4,67.5,887.5,67.3z M885.3,93.8l0.2,0.4
		c0.3,0.6,0.1,1.3-0.2,1.6c-0.5,0.4-0.8,1.1-0.9,1.9c1,0.9,0.9,1.6-0.4,2.2l-1.2,2.6c0.1,1.2-0.1,2.2-0.8,3l-1.6,2.9l-1.2,2.6
		c0,2.2-0.7,4.1-2.1,5.6l-0.1,0.4c0.1,1.8-0.4,3.2-1.6,4.1c0,2-0.5,2.5-1.6,1.4l-2.7,8.1l-0.3,3c-0.1,1.3-0.4,2.5-0.9,3.6
		c-0.1,0.3-0.3,0.5-0.5,0.6c-0.8,0.4-1.1,1.3-1,2.5c0.2,1.3,0,2.5-0.7,3.7c-0.1,0.1-0.2,0.2-0.3,0.2c-1.2,0.2,1.2-2.3,0.2-3.6
		c-0.3,0.5-3.6,10.5-3.5,7.1c0.1-2,1.6-6.8,4.5-14.5c4.8-13.6,10-26.8,15.7-39.6C884.8,93.4,885.2,93.4,885.3,93.8z M873.7,127.6
		c-0.1,0.9-0.4,1.5-0.8,1.8c-0.7,0.5-0.9,0.3-0.6-0.7c0.1-0.5,0.4-0.9,0.9-1.2C874.4,124.4,874.6,124.4,873.7,127.6z M881.9,94.4
		c0.2-0.3,0.6-0.2,0.7,0.2c0.1,0.3,0,0.5-0.1,0.8c-9.2,20.8-16.7,41.6-22.5,62.3l-0.9,1.7c-0.7,1.2-0.9,1.1-0.8-0.4
		c0-0.6,0.3-1.2,0.8-1.7c4.7-17.8,10.5-35,17.3-51.4l-0.5-0.1c-5.3,12.4-10,25.2-14.1,38.5c-0.1,0.5-0.6,1.1-0.9,0.8
		c-0.2-0.1-0.2-0.4-0.2-0.6c4.3-14,9.3-27.6,14.9-40.7l3.4-8.3c0.1-0.2,0.2-0.3,0.4-0.2c0.3,0.1,0.4,0.4,0.3,1.1h0.7L881.9,94.4z
		 M857.2,160c-0.9,1.1-1.1,1-0.5-0.6c0.3-0.8,1.2-5.4,1.8-2.8c0.1,0.4,0.1,0.9-0.1,1.3C857.9,158.9,857.5,159.6,857.2,160z
		 M872.7,93.5c0.4-0.1,0.5,0.1,0.3,0.6c-0.4,1.1-8.9,2.6-10.3,2.9c-4.7,2.1-9.5,3.5-14.5,4.1c-0.8,0.1-0.9-0.1-0.4-0.6
		c0.1-0.1,0.2-0.1,0.3-0.2c4.6-0.9,9.2-2.2,13.7-3.7L872.7,93.5z M868.3,91.5c-0.1,0.2-0.2,0.3-0.4,0.3
		C860.3,93.5,869.5,89.7,868.3,91.5z M847,86.7c0.2-0.8,9.3-4.8,10.6-5.4l12-4.5l5.7-2.1c0.1,0,0.2,0,0.3,0.1c0.8,1-5.8,2.7-6.3,2.8
		l-11.2,4.5l-10.8,5C847,87.2,846.9,87.1,847,86.7z M842.6,93.3l0.6-0.4l2.9-1.4l2.4-0.8l0.6-0.7l2.1-0.9l5.6-2.5l4.8-2l13.6-4.4
		c1.1-0.9,2.3-1.2,3.6-1.1c1.1,0.1,1.2,0.4,0.1,1c-0.4,0.2-0.8,0.2-1.2,0.1c-0.3-0.1-0.6,0-0.8,0.3c-0.4,0.4-1,0.7-1.6,0.7
		c-1.6,0.1-3.1,0.7-4.4,2c-0.2,0.1-0.3,0.2-0.5,0.3c-2.5,0.3-2.6,0.6-0.2,0.9l7.5-3c0.3-0.1,0.7,0.1,0.8,0.6c0.2,0.7-0.1,1.2-1,1.5
		c-10.4,3.3-21.8,6.6-31.8,11.7c-0.1,0.1-0.3,0.1-0.4,0.1l-1.4-0.1l-0.3,1.1l0.9,0.4c0.3,0.1,0.6,0.1,0.9-0.1
		c0.5-0.3,1.2-0.7,2.3-1.1c13.2-5,22.7-8.3,28.5-9.9c0.2-0.1,0.5,0.1,0.5,0.5c0.2,1.5-4.7,2.6-5.5,2.8c0.6,2,0,2.2-1.8,0.8
		c-0.8-0.3-1.2-0.6-2,0c-3.5,2.5-7.2,4.2-11.1,5.1c-0.8,0.9-1.7,1.1-2.7,0.7c-2.2,0.8-9.2,4-11.1,2.6c-1-0.7-1.4-1.8-1.3-3.3
		L842.6,93.3z M836.2,110.9c0.6-3,1.3-5.4,1.5-5.3c0.2,0.1-0.1,2.6-0.8,5.6c-0.6,3-1.3,5.4-1.5,5.3
		C835.3,116.5,835.6,113.9,836.2,110.9z M830.1,110l0.4-4.6c0.1-1.6,0.6-1.9,1.5-0.7c0.3,0.5,0.5,1.2,0.5,2.2l0.3,2.7
		c1.8,1.9,0,6.7-1.1,8.5c0,1.4-0.4,2.3-1.4,2.6c-0.3,0.1-0.5,0.3-0.6,0.6c-2.1,4.3-2.6,3.5-1.4-2.4
		C829.3,116.1,829.9,113.1,830.1,110z M770.2,187.7c0,0.3-0.1,0.6-0.1,0.7c-0.2,0.6-0.4,0.5-0.3-0.3c0.2-5.7,1.1-11.2,2.9-16.4
		c2.2-8.5,2.4-8.5,0.5,0.1C771.6,177.8,770.6,183.1,770.2,187.7z M773.8,198.9c-0.2-1.8-0.8-3.1-1.8-3.8c1.3-12.8,4.1-24.8,8.5-36.1
		c0.7-3,1.7-5.9,3-8.5c3.5-9,3.6-8.9,0.5,0.4l-2.9,8.6c-3.2,9.1-5.6,18.7-7.2,28.6h0.7c4.3-25.9,14.8-50.8,27.2-71.6
		c0.1-0.2,0.3-0.4,0.4-0.4c0.3,0,0.3,0.1,0.1,0.6c-9.6,16.9-16.9,34.1-21.9,51.4C778.3,175.3,776.1,185.6,773.8,198.9z M789.2,153.4
		l-5.6,16.8c-2.1,6-2.2,5.8-0.3-0.4c0.7-3,4.1-15.1,5.5-16.8C789.4,152.2,789.6,152.4,789.2,153.4z M780.4,198.4
		c-0.1-0.1-0.1-0.3-0.1-0.5c1.2-10.6,3.8-21.5,7.7-32.6c0.1-0.3,0.2-0.5,0.3-0.7c0.5-0.6,0.7-0.5,0.3,0.4c-3.7,10.5-6.4,21.6-8,33
		C780.6,198.5,780.5,198.6,780.4,198.4z M811.1,190.9l-1.2,7.4c-0.7,4.3-1,4.3-0.9-0.2c0.1-2.7,0.5-5.2,1.2-7.6
		C811.5,186.5,811.8,186.6,811.1,190.9z M809.4,153.5c-8,14.5-16.4,28.5-25.3,42c-0.7,1.1-1.8,1.2-1.4-0.9
		c7-33.3,20.2-64.1,38.2-88.3c1.6-2.2,3.4-4,5.2-5.5c1.3-1,1.8-0.5,1.6,1.5c-1.2,12.8-4.1,24.7-8.8,35.7
		C816.7,143.1,812.1,148.5,809.4,153.5z M812.3,193.2c-0.2,0.3-0.3,0.2-0.2-0.2c0.2-1,2-11.1,2.6-10.4c0.1,0.1,0.1,0.3,0.1,0.4
		C814.3,185.3,813.5,191.9,812.3,193.2z M816.6,197.2c-0.9,3.7-1.1,3.7-0.5-0.2c1.2-9,3.3-17.5,6.2-25.8c0.7-2,0.7-0.2,0.6,0.4
		c-2.1,7.3-4.6,15-5.7,22.7C817,195.3,816.8,196.2,816.6,197.2z M846.6,183.1c-4.5,6.3-0.3-2.6,0.1-1
		C846.9,182.5,846.8,182.9,846.6,183.1z M826.9,192c-2.4,3.2-4.9,6-7.4,8.3c-1.5,1.4-2.1,0.8-1.6-1.6c0.9-5,2-9.9,3.2-14.8
		c1-3.9,2.5-8.8,4.7-14.9c4.4-12.6,8.8-25.3,13-38.3c0.2-0.6,0.1-1.3-0.3-1.7l-3.4-4.2c-0.4-0.4-0.5-1.2-0.3-1.8
		c1.9-5.4,3.4-11,4.4-16.8c0.1-0.6,0.4-1,0.8-1.1l30.3-7.8c1.6-0.4,1.9,0.3,1.1,2.2c-7.3,16.9-13.6,35-18.8,54.4
		c-0.7,2.5-1.6,4.7-2.9,6.6C842.6,171.5,834.7,181.6,826.9,192z M853.2,198c0,0.3-0.2,0.5-0.4,0.5c-0.1,0-0.2-0.2-0.2-0.4l0.1-6.7
		c-1.6-0.4-2.1-1.6-1.5-3.7c0.2-0.6,0.5-0.9,0.9-0.9c0.2,0,0.5,0,0.8,0.1l1.4-6c0-0.1,0.1-0.2,0.2-0.3
		C855.5,180.4,853.4,196.5,853.2,198z M854.7,152.5L854.7,152.5c-0.2-0.1-0.3-0.3-0.2-0.5l10.5-32.9c0.1-0.2,0.2-0.3,0.4-0.2l0.1,0
		c0.1,0.1,0.2,0.3,0.1,0.5l-10.5,32.9C855,152.5,854.9,152.6,854.7,152.5z M856,163.8c0.1-0.3,0.2-0.6,0.3-0.7
		c0.5-0.6,0.5-0.4,0.3,0.4C855.1,168,854.9,168.1,856,163.8z M857.8,178.5c-0.7,4-1.5,7.3-1.7,7.2c-0.2-0.1,0.2-3.4,0.9-7.5
		c0.7-4,1.5-7.3,1.7-7.2C858.9,171.2,858.5,174.5,857.8,178.5z M859,193.3c2.5-18.8,6.8-36.8,13.1-53.9c5.5-16,11.7-31.6,18.5-46.6
		c0-0.1,0.1-0.1,0.2-0.2c0.4-0.1,0.4,0.6,0.2,0.9c-6.6,15-12.8,30.5-18.4,46.3c-6,17.2-10.3,35.2-12.9,54
		C859.5,195,858.8,194.4,859,193.3z M897.6,181.6c-4.8,8.6-5.1,8.7-0.8,0.4c0.1-0.3,0.3-1.2,0.7-1
		C897.6,181.1,897.7,181.4,897.6,181.6z M905.6,178.4l-0.8,3c-0.7,2.6-0.9,2.5-0.7-0.2c0.1-1.1,0.4-2.2,0.8-3.2
		C906.1,175.4,906.3,175.6,905.6,178.4z M919.9,157l-7.2,18.1c-1.6,6-1.7,6-0.4,0c0.5-1.6,6.8-19.9,7.6-18.5
		C920,156.7,920,156.9,919.9,157z M948.6,151.1c-1.3,1.8-7.1,10.7-8.3,11.2c-0.7,0.3-0.8,0.1-0.3-0.7c4.6-6.4,8.2-13.1,10.8-20.1
		c0.1-0.3,0.3-0.6,0.4-0.6c0.3-0.1,0.4,0.1,0.3,0.4l-2.6,9.3C948.8,150.8,948.7,151,948.6,151.1z M955,140.8
		c0.1-0.2,0.2-0.3,0.4-0.2l0.2,0.1c0.1,0.1,0.2,0.3,0.1,0.5l-3.9,11.4c-0.1,0.2-0.2,0.3-0.4,0.2l-0.2-0.1c-0.1-0.1-0.2-0.3-0.1-0.5
		L955,140.8z M951,133.1l1-2.8c0.4-1.1,0.6-1.1,0.7,0.2c0,0.3,0,0.6-0.1,1c-2.2,9.3-5.5,17.2-9.8,23.7c-2.7,4.1-2.9,3.9-0.4-0.5
		l2.7-4.9l-0.3-1.5c-0.2,0.6-0.5,0.9-0.8,1.2c-0.6,0.5-0.8,0.3-0.4-0.6l1.6-3.5l1.6-4.1l2.4-5.9C949.3,133.5,949.9,132.7,951,133.1z
		 M945.5,135.1c0.2-0.7,0.5-1.5,0.9-2.2c0.6-1,0.8-0.9,0.8,0.4c0,0.9-0.4,1.7-1,2.5C945.3,136.8,945.1,136.6,945.5,135.1z
		 M937.7,131.8c2.6-3.2,5.3-6,8.1-8.2c1.7-1.3,2.2-0.7,1.6,1.8c-4,15.9-11.3,28.2-21.8,36.7c-1.4,1.2-2.9,1.7-4.4,1.7
		c-0.8,0-1.3-1.2-0.9-2.2C924.8,150.4,930.9,140.3,937.7,131.8z M931.6,121.8c1.1-0.8,1.2-0.6,0.3,0.6c-6.1,8.2-11.2,16.7-15.4,25.4
		c-0.5,1-0.8,1.2-1.1,0.6c-0.1-0.2-0.1-0.6,0-0.8C918.6,140,925.6,126,931.6,121.8z M914.5,145.7c0.2-0.7,1.9-4.9,2.4-4.4
		c0.2,0.1,0.2,0.4,0.1,0.7l-2,4.5C905.9,164.9,905.7,164.7,914.5,145.7z M908.7,173.1c-0.2,0-0.4-0.4-0.3-0.7
		c4.6-15.1,11.2-29.2,19.8-42.2c1.2-1.8,2.3-3.3,3.4-4.7c4-4.9,4.3-4.6,0.6,0.9l-8.5,12.9c0.3,0.1,0.5,0.1,0.8,0.1
		c0.6-0.1,0.7,0.1,0.3,0.8l-3.2,5.8c-0.8,2.9-2.2,5-4.2,6.4c-3.3,6.3-6.1,13-8.2,20.2C909,173,908.9,173.2,908.7,173.1z
		 M1033.5,69.4c0.1-0.2,0.3-0.3,0.4-0.2l0.1,0.1c0.1,0.1,0.2,0.3,0.1,0.5l-3.7,10.1c-0.1,0.2-0.3,0.3-0.4,0.2l-0.1-0.1
		c-0.1-0.1-0.2-0.3-0.1-0.5L1033.5,69.4z M1026.2,72.8l1.8-3.7c1.6-3.3,1.9-3.1,1,0.7c-0.4,1.7-1.1,3.3-1.9,4.8
		c-0.2,0.3-0.2,0.7-0.2,1.1l0,0.5l1.6-2.3l1.9-4.9c1.4-3.5,1.6-3.3,0.5,0.3c-0.5,1.9-1.3,3.7-2.1,5.4c-5.6,14.5-12.4,28-20.2,40.5
		c-1.2,2.7-2.7,5.1-4.5,7.1c-5.6,9.2-9.9,15.3-13,18.2c-1.8,1.7-1.9,1.5-0.2-0.7c0.2-0.3,0.3-0.7,0.1-1.1l-0.2-0.4
		c-0.2-0.6-0.1-1.2,0.2-1.7l12.7-18l6.4-11.2l2.4-4.5l7.9-18.3l2.5-5.4C1023.5,76.4,1024.5,74.3,1026.2,72.8z M1002.2,106.2
		l-9.9,21.4c-0.1,0.2-0.3,0.2-0.4,0.1l0,0c-0.1-0.1-0.2-0.4-0.1-0.6l9.9-21.4c0.1-0.2,0.3-0.2,0.4-0.1l0,0
		C1002.2,105.7,1002.3,106,1002.2,106.2z M1011.9,92.2c0.1-0.3,0.4-0.3,0.6-0.1l0,0c0.2,0.2,0.2,0.6,0.1,0.8l-10.9,20.9
		c-0.1,0.3-0.4,0.3-0.6,0.1l0,0c-0.2-0.2-0.2-0.6-0.1-0.8L1011.9,92.2z M1023.8,59.7c1.2-1.5,1.4-1.3,0.5,0.6
		c-0.1,0.2-0.2,0.4-0.3,0.5c-8.3,10.7-15.5,22.6-21.8,35.7l0.5,0.4l1.9-3.8c1.4-2.7,1.6-2.5,0.6,0.5c-0.5,1.4-1.3,2.5-2.5,3.3
		c-0.6,2.5-1.6,4.8-2.9,6.8l-2.9,6.3l-1.9,3.7l-1.6,4.4c-0.1,0.3-0.3,0.5-0.5,0.7c-0.6,0.4-0.8,1-0.8,1.8c0,0.5-0.1,0.9-0.4,1.2
		l-2.3,2.6c-2.7,5.2-5,10.6-7,16.3c-0.5,1.4-1.9,1.8-1-0.6c2.4-6.1,4.8-12.2,7.2-18.3l5.4-11.9C1002.3,92.1,1012.1,73.9,1023.8,59.7
		z M998.8,91.1c0.6-1.2,7.4-14.8,8-13.6c0,0.1,0,0.3,0,0.4l-7.4,13.3c0,0.4-0.1,0.7-0.3,1.1c-6,11.5-12.5,26.1-19.5,43.9
		c-1.6,4.1-2.6,7.2-2.9,9.2l0.1,0c0.1,0,0.1,0,0.2-0.1c9.5-27.1,21.4-52,35.7-74.7c1.2-2,3.7-5.3,7.5-10c0.1-0.2,0.3-0.3,0.5-0.2
		c0.6,0,0.6,0.5-0.1,1.4c-16.1,22-29.2,48.7-39.3,75.5c-0.9,2.3-4,11.9-4.6,9.2l-0.7-2c-0.1-0.4-0.2-0.9,0-1.3
		C982.2,124.7,989.9,107.4,998.8,91.1z M970.1,147.3l6.8-18.1c0.1-0.2,0.2-0.3,0.4-0.2l0,0c0.1,0.1,0.2,0.3,0.1,0.5l-6.8,18.1
		c-0.1,0.2-0.2,0.3-0.4,0.2l0,0C970.1,147.7,970,147.4,970.1,147.3z M974.5,155.1c-0.1,0.6-0.4,1-0.8,1.2c-1.1,0.5-1.2,0.1-0.4-1
		l0.5-0.7C974.5,153.5,974.7,153.7,974.5,155.1z M969.8,162.3c-0.3,0.5-0.5,0.5-0.5-0.2C969.2,160.5,973,156.6,969.8,162.3z
		 M963.9,188.1c-0.1,0-0.2-0.1-0.2-0.4c-0.1-0.9,0.1-5.7,1.3-5.7c0.6,0,0.8,0.3,0.3,1c-0.7,1.2-1,2.6-0.8,4.3c0,0.3-0.1,0.6-0.3,0.7
		L963.9,188.1z M964.6,191.7c0.4-4.8,1.4-9.4,2.9-13.9c0.1-0.4,0.1-1,0.6-0.9c0.2,0,0.3,0.3,0.2,0.5l-2.8,14.5
		C964.4,197.6,964.1,197.5,964.6,191.7z M968.5,186.6l-0.1,0c-0.1,0-0.1-0.1-0.1-0.2c0.4-5.1,1.4-9.9,3.1-14.5
		c0.2-0.4,0.3-0.9,0.3-1.3c0-0.3,0.2-0.6,0.5-0.8c0.5-0.3,0.6-0.2,0.4,0.5c-1.7,5.1-2.9,10.4-3.8,15.9
		C968.8,186.5,968.6,186.6,968.5,186.6z M971,195.4l-0.1-0.2c-0.1-0.1-0.1-0.2-0.1-0.4c2.1-12.6,5.3-25.2,9.7-38.1
		c0.3-1,0.6-1.1,0.8-0.4c0.1,0.2,0.1,0.5,0,0.7c-4.3,12.2-7.6,24.9-10,38C971.1,195.5,971.1,195.6,971,195.4z"/>
	<path class="st0" d="M779.1,121.6c10-13.7,25.3-39.2,23.4-60.1c-0.7-8.1-3.9-15.8-6.2-22.3c-6.8-19.8-28.5-18.3-40.8-13.4
		c-36.2,14.6-84,62.5-81.4,120.5c0.5,11.6,2.8,24.5,7,38.5c0.1,0.4,0.1,0.7,0,1.1c-5.5,20.4-3.7,33.8,11.6,42.4
		c1.9,1.1,3.1,0.2,3.9-2.2c0.1-0.4,0.4-0.7,0.7-0.8l0.6-0.2c0.5-0.2,0.8-0.9,0.8-1.7c-0.5-4.5-1.5-8.8-3.1-12.8
		c-1-2.6-1.3-5.3-0.8-8.2c2-11.4,4.7-22.5,8.3-33.1c0.5-1.6,1.2-1.7,1.9-0.2c2.7,5.7,6.6,7.7,11.7,6c3.8-1.2,8-2.2,11.4-4.4
		C747.1,158.5,764.1,142.1,779.1,121.6z M790.9,83.6c-14,32.5-38.1,55.9-61.6,73.1c-0.1,0.1-0.2,0.1-0.3-0.1
		c-0.2-0.3-0.2-0.5,0.1-0.7c9.3-6.8,18.4-15,27.3-24.5l-1.4-0.1l-2.4,2.3c-6.2,5.5-6.3,5.3-0.3-0.4c11.1-12,21.3-25.2,30.6-39.8
		c4.6-7.3,4.7-7,0.3,0.8l-3.8,6.3l0.5,0.7c3.9-5.7,7.4-11.8,10.6-18.3c0.1-0.2,0.3-0.3,0.4-0.1C790.9,82.9,790.9,83.5,790.9,83.6z
		 M765.4,111.9l13-18c0.1-0.2,0.3-0.2,0.4,0l0,0c0.1,0.2,0.1,0.4,0,0.5l-13,18c-0.1,0.2-0.3,0.2-0.4,0l0,0
		C765.3,112.3,765.3,112.1,765.4,111.9z M737.8,49.2c2.3-1.3,2.4-1.1,0.2,0.6l-4.1,3.1c-9.4,7.5-17.9,16.5-25.7,26.8
		c0.2,0.2,0.3,0.4,0.4,0.7c0.2,0.4,0.2,1-0.1,1.4c-3.5,5.5-7.3,10.7-11.3,15.4c-4.7,6.8-8.6,14.6-11.6,23.4c0,0.1-0.1,0.2-0.1,0.2
		c-0.3,0.2-0.4,0-0.1-0.8c9.1-29.5,28.3-52.7,48.3-67.5C735,51.2,736.4,50.1,737.8,49.2z M700.4,99.5c-3.8,6.9-7.2,14.2-10.2,21.9
		c-0.6,2.1-1.3,4.1-2.1,6c-0.5,1.2-0.7,0.4-0.4-0.2c0.8-2,1.4-4,2-6.1c1.7-4.7,7.6-19.6,10.6-22C700.7,98.7,700.8,98.8,700.4,99.5z
		 M680.2,111.3L680.2,111.3c-0.2-0.1-0.2-0.4-0.1-0.6l7.2-17.6c0.1-0.2,0.3-0.3,0.4-0.2l0,0c0.1,0.1,0.2,0.3,0.1,0.5l-7.2,17.6
		C680.5,111.3,680.3,111.4,680.2,111.3z M680.9,132.6c0,0.2,0.2,1.5-0.3,0.9c-0.1-0.1-0.1-0.3-0.1-0.5l1.1-7.9c-1.3-1-1.4-2.3-0.5-4
		c3.3-16.1,12.4-31.6,20.8-42.6c6.1-8.1,6.2-8,0.3,0.4l-6.5,10.4l0.6,0.4c8.9-14.2,19.2-26,31-35.4c4.1-3.2,4.2-3.1,0.3,0.4
		C707.7,72.1,686.9,100.1,680.9,132.6z M680,203.4c-0.1-0.1-0.1-0.3-0.1-0.5c0.9-2.8,1.4-6.5,1.3-9.6c0-0.1,0-0.3,0.1-0.4
		C682,191.5,681.6,204.9,680,203.4z M686.1,213.7c0,0.3-0.3,1.1-0.5,0.2c-0.5-3.6-0.7-7.3-0.4-11c-0.9,1.6-1.3,3.4-1.1,5.5
		c0,0.2-0.1,0.4-0.2,0.4l-0.3,0c-0.1,0-0.2-0.1-0.2-0.3c-0.1-2.3-0.1-4.6,0.3-6.8c0.3-2.1,0.7-2.1,1.3-0.2c0.2,0.7,0.5,1,0.8,1
		l0.3,0.2c0.2,0.2,0.4,0.5,0.4,0.9C686.4,207,686.2,210.4,686.1,213.7z M686.5,158.7c-0.7-13.1,1-25.3,5.2-36.4
		C696,111,703.5,97.7,710.7,88c1.9-2.6,4-5.1,6.1-7.4c2.6-2.9,3.1-2.4,1.3,1.6c-11.3,24.6-21.3,50.3-29.8,77
		C687.3,162,686.7,161.9,686.5,158.7z M697.2,183.1c-1.5,4.8-2.5,9.8-3.2,15c0,0.2-0.1,0.4-0.3,0.6c-0.2,0.2-0.3,0.2-0.3-0.2
		c0.2-2.7,1.9-14.4,3.5-15.8C697.2,182.4,697.3,182.5,697.2,183.1z M700.2,156.7c-1.6,5.4-3.3,10.8-5,16.2c-0.1,0.3-0.1,0.7,0,1.1
		l0.2,0.4c0.1,0.1,0.1,0.3,0,0.5c-0.9,1.4-1.5,3-1.9,4.8c1.8,0.3,1.8,1.5,0,3.4c0.1,1.3-0.4,2-1.3,2.1c-0.2,2.6-0.6,3.4-1.3,2.4
		c-0.2-0.4-0.3-0.9-0.2-1.4c2.6-10.3,5.5-20.4,8.7-30.3C699.8,154.7,701,154,700.2,156.7z M694.6,167.1c-1.9,6.4-3.3,10.8-4.1,13.3
		c-0.8,2.5-1,2.4-0.7-0.3c0.1-0.8,0.3-1.6,0.6-2.5c5.7-18.8,10-32.5,13-41c-0.2-1.1-0.5-1.1-0.9,0c-4.4,12.5-8.7,25-12.8,37.7
		c-0.2,0.7-0.2,0.6-0.1,0c3.4-13,7.5-25.6,12.3-37.7l1.1-3.7l10.2-26l0.3-1.1l5-10.8c0.4-1.1,4.9-12.4,5.5-11.3
		c0.1,0.1,0.1,0.3,0,0.4l-5,11.3c-1.2,2.2-2.8,7.9-4.1,9.3l0.5,1.1c0.8-2,17.8-40.1,18.9-37.5c0.1,0.1,0.1,0.3,0,0.4
		C718.3,100.1,705,132.9,694.6,167.1z M706.9,141.1c-0.2,0.8-0.6,1.3-1.1,1.4c-0.7,0.5-1.2,1.3-1.3,2.4c0,0.5-0.2,0.8-0.6,1
		c-2.2,1.1,1.1-6.1,1.2-6.3l4.9-13.8l0.7-1.5c6.8-18.3,14.7-35.6,23.5-52.2c0.4-0.7,0.7-0.8,0.9-0.3c0.1,0.3,0.1,0.7,0,1l-4.9,9.8
		c0.8,1.3,0.8,2.4-0.2,3.4l-1.6,3.3l-0.5,1.2l-6.4,14.1c-0.2,1.2-0.7,1.7-1.6,1.5l-0.1,2.2l-0.4,1.5c-0.5,1.4-1.2,2.6-2.1,3.4
		c-0.3,0.3-0.5,0.7-0.5,1.2c0,1.9-0.6,3.4-1.6,4.6c-0.2,0.2-0.3,0.5-0.4,0.8c-0.1,0.8-0.5,1.2-1,1.1c-0.4-0.1-0.7,0.4-0.7,1v0.5
		c1.2,0.4,1.2,1.1-0.3,2.3c-0.3,2.7-0.8,2.8-1.5,0.5c0-0.1-0.1-0.2-0.3-0.2c-0.3,0-0.4,0.3-0.3,0.7c0.7,1.3,0.8,2.7,0.5,4.2
		l-0.5,1.1l-1.3,2.6l-0.4,1.1l-0.4,2.2l-1.1,2.2L706.9,141.1z M735.3,75.7c-0.2,1.5-3.5,4.9-0.4-0.3
		C735.3,74.8,735.5,74.9,735.3,75.7z M720.5,115.4l-6.1,15.6c-0.9,2.4-1.1,2.3-0.4-0.3c0.1-0.5,0.3-1.1,0.6-1.7
		c1.8-4.8,3.7-9.6,5.7-14.4C722.6,110.1,722.7,110.3,720.5,115.4z M710.2,153.8c-1.4,0.4-1.8-0.3-1.2-2.1
		c8-24.1,17.7-47.3,29.2-69.8c0.9-1.7,2.4-6,4.5-12.9c0.1-0.3,0-0.6-0.3-0.7l-0.4-0.1c-0.4-0.1-0.7-0.5-0.8-1
		c-0.3-1.4-1.1-2.3-2.2-2.7c-0.4-0.1-0.7-0.6-0.8-1.1l-0.2-1.3c-0.1-0.6,0.1-1.3,0.5-1.6c13.6-11.4,39-23.9,53.9-10.8
		c0.3,0.3,0.5,0.8,0.5,1.3c-0.4,13.5-8.1,28.6-14,38.5C763.4,115.3,734.2,147.1,710.2,153.8z M751.5,144.8c-1.1,1-1.4,0.6-1-1.1
		l0.1-0.4c-7.5,6.9-15.3,12.8-23.4,17.8c-0.5,0.3-0.7,0.2-0.6-0.2c0-0.1,0.1-0.2,0.1-0.3c17-11.8,32.5-26.7,46.5-44.5l3.5-4.5
		l1.9-2.6c0.2-0.4,3-5.6,3.1-4.1c0,0.2,0,0.3-0.1,0.5l-2.7,4l-1.9,2.6l-3.5,4.8l-12,15.8C758.6,137.4,755.3,141.4,751.5,144.8z
		 M760.9,140c-0.4,0.4-0.6,0.4-0.4-0.1c0.1-0.1,0.2-0.3,0.3-0.5c8.1-9.2,15.7-19,22.8-29.7c4.1-6.5,4.2-6.2,0.3,0.8
		C777.1,121.6,769.4,131.4,760.9,140z"/>
	<path class="st0" d="M621.2,123.9c-10,16-21.1,30.2-33.4,42.6c-0.2,0.2-0.5,0.3-0.7,0.2c-0.9-0.4,0.6-0.9,0.9-1.3
		c5.4-6.2,12.6-13,16.8-20.7l-0.8-0.1c-0.6,0.8-7.6,10.2-7.8,8.5c0-0.2,0-0.3,0.1-0.4c7.8-8.8,15.2-18.4,22-28.8
		c0.8-0.9,1.2-2,1.3-3.3c0.1-0.8-0.4-1.5-0.9-1.5l-0.5,0c-0.3,0-0.5,0.1-0.7,0.3c-5.9,7-66.6,76.4-70.8,55.3
		c-1-5.2,1.1-8.4,4.2-11.7c17.1-18.1,34.9-39.7,48.1-63.4c1.8-3.3,1.7-6-0.5-8.1c-0.2-0.2-0.3-0.4-0.4-0.7l-0.6-2.7
		c-0.1-0.6-0.5-1-0.9-1c-4.3-0.4-11.5,9.7-14.5,13.4c-7.9,9.6-12.2,14.8-18.4,22c-0.2,0.3-0.6,0.1-0.7-0.3c-0.1-0.3,0-0.6,0.1-0.9
		c9.1-25.6,19.6-50.7,31.6-75.3c2-4.1,3.4-8.9-1.4-10.4c-0.7,0.5-3,4.8-3,3.6c0.1-0.9,0.7-2.5,2-4.7c0-0.1,0-0.3,0-0.4
		c0-0.3-0.2-0.4-0.3-0.5l-0.9-0.2c-0.5-0.1-0.9-0.7-0.9-1.4c0.1-4.5-1.7-5.8-5.4-3.9c-0.2,0.1-0.4,0.3-0.5,0.5
		c-15.5,31.8-29.1,64.5-40.6,98c-0.7,1.9-1.6,3.5-2.8,4.8c-12.6,13.5-21.7,22.8-27.3,28.1c-5.7,5.4-17,15-24.1,14.3
		c-0.6-0.1-1-0.8-0.9-1.6c0.8-9.3,2.9-18,6.3-26.1c0.3-0.8,1.1-0.9,1.6-0.3c0.9,1.2,1.8,2.4,2.7,3.7c14.5,21.2,40.5-28.8,34.3-48.5
		c-1.1-3.6-7.8-13.7-10.1-15.3c-12.7-9.2-32.5,27.6-37.9,40.1c-4.3,10-14.3,19.5-21.2,26c-1.8,1.7-3.1,2.7-4.1,2.9
		c-2,0.6-2.8-0.5-2.3-3.2c2.2-12.6,7.2-27.9,5.2-40.5c-0.1-0.4-0.3-0.8-0.6-1l-7.6-4.7c-0.2-0.1-0.3-0.3-0.4-0.5
		c-0.3-0.7-0.7-1.3-1.1-1.9c-8-10.5-47.3,57.5-52.6,66.6c-0.8,1.3-2.2,2.8-3,4.2c-0.2,0.3-0.3,0.5-0.5,0.6c-0.8,0.5-1,0.2-0.7-0.9
		c9.9-33.3,21.4-64,34.4-97.6c5.1-13.1,9.1-26.7,12.3-41.1c0.4-1.7-0.2-3-1.6-3.9c-1.3-0.8-2.1-2.1-2.4-3.9
		c-0.1-0.7-0.6-1.2-1.1-1.1l-1.8,0.3c-0.3,0-0.5,0.3-0.7,0.6c-15.6,30.3-27.2,61.7-38.8,94.4c-0.2,0.5-0.5,0.8-0.8,0.8
		c-17.5,1.7-30.8,11-45.7,22.9c-0.2,0.2-0.5,0.2-0.7,0.2l-21.2-7c-0.7-0.2-1-1.4-0.6-2.2c5.8-11.3,13.7-18.7,21.8-26.4
		c5.6-5.3,11.6-9.6,18-12.8c1.6-0.8,2-0.1,1.3,1.9l-0.3,1c-0.1,0.4-0.1,0.8,0,1.2c0.6,1.8,1.5,0.1,1.8-0.9c0.2-0.6,0.5-1.2,0.8-1.6
		c1.6-1.9,1.8-1.7,0.5,0.6c-1,1.7-1.6,3.3-1.8,4.7c-0.2,1,0,1.7,0.6,2c0.3,0.2,0.8,0.1,1-0.2c4.5-5.2,5.3-10.7,2.6-16.6
		c-2.5-5.3-7.2-6.7-11.4-5.9c-16,3-40.8,19-45.7,43c-0.1,0.3-0.2,0.6-0.4,0.7c-10.5,10.8-20.6,21.3-30.8,33.5
		c-3.2,3.9-6.6,7.6-10,11.1c-1.8,1.9-2.3,1.4-1.6-1.6c3-11.3,6.8-22,11.3-32.2c4.1-9.2,8-18.5,11.8-28c2.1-5.2-0.9-6-2.4-8.9
		c-0.7-1.4-1.4-2.9-2-4.4c-0.2-0.4-0.4-0.6-0.7-0.7c-8.7-2-17.5,30.2-23.6,38.2c-5.8,7.5-14,17.5-21.4,21.5
		c-0.7,0.4-1.5-0.5-1.4-1.5c1-9.1,2.9-17.6,4.8-26.4c0.8-3.9,0.8-8.1,1.1-12.1c0.2-2.9-0.5-4.8-2.2-5.8l-6.4-3.8
		c-0.2-0.1-0.3-0.3-0.4-0.5c-2.8-5.5-6.9-3.2-10.2,0.4c-16.2,17.6-31.3,42.6-44,64.3c-0.5,0.8-0.9,1.5-1.4,2.1
		c-2.3,2.9-2.8,2.4-1.6-1.6c3.8-12.8,7.2-23.3,10.1-31.5c6.2-17.7,14.1-39.2,23.8-64.4c4.1-10.6,7.7-22.3,10.8-35
		c0.6-2.3,0.8-4.6,0.8-6.8c0-0.6-0.3-1.2-0.8-1.3c-1.6-0.5-2.6-1.8-3-4c-0.1-0.5-0.3-0.9-0.7-1c-6.9-3.2-36.3,79.4-40.5,91.2
		c-0.2,0.6-0.7,0.9-1.2,0.7c-4.3-1.6-8.6-2.2-13-1.8c-0.6,0-1.1-0.6-1.1-1.5c0.2-5.7-1-10.6-3.5-14.8c-3.5-5.8-3.6-10.7-10.3-10.9
		c-13.2-0.4-30.5,15.2-40.1,27c-0.1,0.1-0.2,0.2-0.4,0.1c-1.7-0.5,4.8-12.7,5.8-14c18.1-25.2,33.6-51.7,46.5-79.6
		c3.3-7.2-4.1-9.2-5.7-13.7c-0.9-2.6-2.4-3.5-4.4-2.7c-6.8,2.6-11.8,10.3-17.3,19c-21.9,35-39.4,76.8-52,119.5
		c-4,13.6-8.2,28.9-9.4,43.6c-0.2,2.9,0.5,4.9,2.1,5.8c0.3,0.2,0.5,0.5,0.6,0.9c0.3,1.3,0.7,1.5,1.3,0.6c-0.1-0.2-0.1-0.4-0.1-0.6
		c-0.2-2,0.1-2.2,1.1-0.7c0.4,0.6,1,0.9,1.7,0.8c1.1,1.6,2,3.2,2.8,4.9c0.9,1.9,1.5,2.1,1.9,0.8c0.2-0.6,0.7-0.8,1-0.4
		c0.1,0.1,0.2,0.1,0.2,0.2c0.9,0.7,1.3,0.3,1.2-1c-0.2-4.3,0.9-7.8,3.2-10.6c1-1.3,1.5-1,1.4,0.9c-0.1,1.2-0.1,2.6-0.1,4
		c0,5.4,1.6,9.4,4.8,12c0.2,0.2,0.4,0.4,0.4,0.7c4.9,18.6,20-2,25.2-9.2c13.3-18.4,25-38.7,35.2-60.9c0.1-0.2,0.2-0.4,0.4-0.5
		c5.1-4.1,10.5-6.9,16.2-8.4c1.4-0.4,1.7,0.3,1.1,2.1c-5,12.9-9.1,26.2-12.3,40.1c-2,8.7-2,18.5,4.3,23.5c1.2,0.9,2.7,0.6,3.8,2.3
		c6.7,10.6,16.6-1.6,20.9-8.6c10.7-17.6,21.6-35,32.9-52c1.6-2.4,2.2-2,1.7,1.2c-0.2,1.4-0.4,2.9-0.6,4.4
		c-1.1,8.9,1.1,19.1,7.4,23.3c5.3,3.7,5.4,9.7,12.9,6.3c2.5-1.1,4.7-3.1,6.6-5.9c1.1-1.6,1.4-1.3,1.1,0.8c-1,6.3-0.2,12,2.4,17.1
		c0.4,0.8,1.2,1.7,2.3,2.8c2.2,2.1,3,5.6,4.8,7.3c2.8,2.6,5.9,2.7,9.6,0.5c2-1.2,3.9-2.7,5.7-4.3c5.5-5,11-11.5,16.6-19.5
		c6-8.6,11.9-17.3,17.6-26c0.8-1.3,1.4-1.1,1.7,0.6c0.6,3.2,1.7,5.9,3.3,8.2c1,1.5,2.6,2.9,4.7,4.3c1.5,1,3,1.9,4.5,2.7
		c1.1,0.6,1.2,1.4,0.3,2.4c-10.5,11-20.4,23.2-29.4,36.5c-6.5,9.5-15.7,24.1-11.3,36.9c1.1,3.3,2.9,3.4,3.7,8.4
		c1.5,9.6,13,6,17.4,3.9c15.3-7.7,29.8-19.1,43.4-34.4c6.3-7.1,15.2-20.1,15.1-31.4c0-7.6-4.4-15.4-6.4-22.5c-0.2-0.6,0-1.3,0.4-1.7
		c6.8-6.1,13.9-11.5,21.2-16.3c1.8-1.2,2.2-0.5,1.3,1.9c-3.3,9.2-6,18.9-8.2,29.1c-2,9.5-0.2,20.2,7.6,22.7c0.2,0.1,0.4,0.3,0.6,0.5
		c5.9,10.3,14.9,1.9,19.3-5c12-19,24-37.8,36.2-56.6c0.1-0.2,0.3-0.3,0.5-0.3l0.3,0c0.1,0,0.3,0.2,0.2,0.4
		c-2.4,11.5-1.9,24.4,6.2,30.6c1.1,0.9,2.2,2,3.4,3.5c4.8,6.2,10.3,3.7,15-1.6c1.8-2,3.4-4.1,5-6.3c1-1.4,1.4-1.1,1.4,0.8
		c-0.2,7.7,1.7,14.2,5.9,19.3c2.1,2.6,4.1,6.2,5.9,7.9c11,10.5,29.5-4.7,38.7-14.7c0.3-0.3,0.6-0.4,0.9-0.3
		c3.8,1.4-17.1,55.4,3.5,58.6c0.3,0,0.6,0.3,0.7,0.6c2.5,5.1,9.1,5,8.4-2.1c0-0.4-0.2-0.8-0.5-1l-3-2.4c-0.3-0.2-0.5-0.6-0.5-1.1
		c-0.1-1.8-0.1-4.1,0.2-6.9c1-11.4,3-22.1,5.9-32.3c0.5-1.8,1.1-1.8,1.8-0.2c5.3,12.4,15.3,13,24,7.7c21.9-13.3,38.8-38.5,54-64
		c0.1-0.2,0.2-0.4,0.2-0.6C623.2,123.5,622.9,121.9,621.2,123.9z M596.5,101.2c-3.3,6-7,11.4-11.1,16.4c-0.2,0.2-0.4,0.3-0.6,0.4
		c-0.8,0.1,0.1-0.5,0.2-0.5c3.7-5.2,7.3-10.6,10.6-16.3C595.7,101,597.5,99.4,596.5,101.2z M577.6,115.9c-1.4,0.4-2.6,1.6-3.7,3.4
		c-0.2,0.3-0.4,0.3-0.5,0.1c-0.1-0.2-0.1-0.4,0-0.5l6-6.8c2.2-4.1,4.8-7.6,7.9-10.5c2.4-3.2,5-6.2,7.8-8.8c0.7-0.7,1.9-0.5,1.3,1.2
		c-0.1,0.3,0,0.7,0.2,0.8l0.3,0.1c0.1,0.1,0.2,0.3,0.1,0.5l-2.5,3.7l-15.9,22.7c-0.1,0.1-0.2,0.3-0.2,0.4c-0.2,0.5-0.4,0.7-0.6,0.3
		c-0.2-0.3-0.5-0.3-0.7,0c-7.3,9-14.8,17.7-22.5,26.2c-0.4,0.4-0.6,0.5-0.7,0c-0.1-0.2,0-0.5,0.1-0.6c13.7-15.9,27-32.4,40-49.4
		l1.6-3.1c0.3-0.5,0.2-0.7-0.3-0.6c-0.4,0.1-7.7,10.5-8.9,11.8c-9.5,12.6-19.4,24.5-29.8,35.8c-1.4,1.5-1.6,1.4-0.6-0.4
		c0.1-0.2,0.2-0.3,0.3-0.4C563.5,133.5,570.6,124.8,577.6,115.9z M590.3,49.1c1.1-2.2,2-4.5,2.9-6.9c0.5-1.4,1.3-0.6,0.7,0.6
		c-1,2.3-2.2,4.5-3.4,6.7c-8.9,19.6-15.2,34.2-19.1,43.9c-0.2,0.5-0.3,0.5-0.4,0c0-0.2,0-0.4,0.1-0.5
		C577.1,77.9,583.5,63.3,590.3,49.1z M587.5,45.5c-0.1,0.3-0.1,0.6-0.2,0.8c-4.4,9.5-8.6,19.1-12.7,28.8l0.5-0.3
		c1.4-0.7,1.5-0.4,0.4,1c-0.4,0.5-1,0.9-1.7,1l-0.2,0.1l-1.1,2.5l0.3,1.1l0.4-0.6c1.3-1.9,1.5-1.7,0.5,0.5c-0.3,0.7-0.7,1.3-1.2,1.8
		l-1,3.2c-0.3,1.6-1,2.9-2,3.9c0,1.4-0.4,2.4-1.1,3.1c-0.2,1.5-0.7,2.8-1.5,3.9l-0.5,1.8l-1.8,3.9c-0.4,0.4-0.6,1-0.6,1.7
		c0,0.5-0.4,0.8-0.7,0.7c-0.1-0.1-0.3-0.2-0.4-0.4l-1.6,3.8l0.4-0.4c1.1-1.1,1.4-0.8,0.8,0.9l-3.4,9.2c-0.5,1.3-0.8,1.2-1-0.2
		l-0.1-0.8l-4.2,11.3c-0.1,0.2-0.3,0.3-0.5,0.2c-1.6-1.4,17.4-47.3,19.4-51.9c4.3-10.7,9-21,14.1-31.1
		C587.5,43.8,587.7,43.9,587.5,45.5z M549.3,131.3c5.4-15.5,9.2-26.2,11.5-32.2l-1.3,0.9l-1.3,3.3l-2.3,5.6l-4.9,13.6
		c-0.1,0.3-0.3,0.5-0.4,0.4l-0.2-0.1c-0.1,0-0.1-0.3,0-0.5l5.1-13.4l2.2-5.7c2-6.4,4.5-12.5,7.4-18.3c0.6-2.6,1.5-5,2.8-7l6.3-15.4
		c3.3-7.8,6.7-15.5,10.4-22.9c0.2-0.5,0.5-0.9,0.8-1.3c1.2-1.6,1.3-1.5,0.4,0.5l-11.1,24.1l-2.8,7l0.5,0.8L586,41.2
		c0.1-0.2,0.2-0.2,0.4-0.1c0.2,0.2,0.2,0.5,0,0.9c-12.2,26.6-23.4,54-33.6,82.2c-1,2.7-2,5.2-3.1,7.7c-0.1,0.1-0.1,0.2-0.2,0.2
		C549.2,132,549.1,131.8,549.3,131.3z M547.3,132.1c0.9-3.2,1.1-3.4,0.6-0.6c0.3,0.7,0.2,1.1-0.2,1.2
		C547.3,132.8,547.2,132.6,547.3,132.1z M81.2,186c-0.7,2.1-0.9,2-0.5-0.2c0.2-1.1,0.5-2.2,0.8-3.3c0.1-0.2,0.1-0.4,0.1-0.7
		c0-0.7,0.1-1.1,0.5-1c0.1,0,0.2,0.2,0.2,0.4C82.1,182.9,81.7,184.5,81.2,186z M89.8,171.1l-1,2.7c-0.5,1.4-0.7,1.3-0.5-0.2
		c0.1-0.5,0.4-1.6,0.6-2.2c0.1-0.4,0.3-0.7,0.5-0.9C90.1,169.7,90.3,169.8,89.8,171.1z M92.8,167.1c-1.9,5.9-0.8-1.1-0.1-0.4
		C92.8,166.8,92.9,167,92.8,167.1z M142.1,105.3c0.4,0.2,0.4,0.4,0.1,0.7l-5.2,4.3c-12.4,11.6-23.1,24.9-32.3,40
		c-0.2,0.4-0.4,0.5-0.7,0.3c-0.2-0.1-0.3-0.5-0.1-0.7c9.3-15.9,20.3-29.2,32.9-40C138.6,108,141.5,105,142.1,105.3z M125.7,116.9
		c0.7-0.7,6.7-7,7.1-6.5c0.1,0.1,0.1,0.3-0.1,0.4l-6.5,6.5c-6.6,7.6-12.9,15.6-18.9,24.1c-0.1,0.2-1.6,1.1-0.6-0.4
		C112.5,132.2,118.9,124.2,125.7,116.9z M106.9,122.9c0-0.1,0-0.3,0.1-0.4c0.6-0.7,1.5-3.6,1.7-1.6c0,0.4-0.1,0.9-0.3,1.2
		C107.4,123.6,106.9,123.8,106.9,122.9z M160.6,27.7c0.1,0.2,0.2,0.4,0.1,0.6l-9.8,19.4l-1,2.1l-1.5,2.8l-8.2,14
		c-2.3,4.6-4.8,8.8-7.8,12.6c-0.8,1-1,0.9-0.5-0.5c0.2-0.7,0.4-1.5,0.6-2.4c0.5-2.5,2.1-5.4,4.7-8.7l12-21.2l1.3-2.5l1-1.8
		c0.5-1.9,1.4-3.5,2.6-4.7c0.1-0.1,0.3-0.2,0.5-0.1c0.4,0.2,0.2,0.4-0.4,0.7c-0.8,0.4-0.9,1.2-0.3,2.4
		C154.3,39.5,160.4,27.4,160.6,27.7z M152.9,25.8c-6.3,9.5-12.1,19.5-17.5,29.7c-5.4,10.5-10.7,21.1-15.8,31.9
		c-0.2,0.4-0.3,0.4-0.4,0.2c0-0.1-0.1-0.2,0-0.3c7.6-18.2,16.3-35.2,26.1-51.2c2.6-4.3,5-7.9,7.3-10.8
		C156.2,20.4,156.3,20.6,152.9,25.8z M114.1,94.6c10.3-27,23.5-52.7,39.2-74.2c0.1-0.1,0.2-0.2,0.4-0.1c0.2,0.1,0.1,0.3-0.1,0.6
		c-15.4,23-28.4,47.8-39,74.2c-0.1,0.1-0.2,0.2-0.3,0.1l-0.3-0.1C114,95,114,94.8,114.1,94.6z M111.8,94.9c0.8-1.9,1.2-3.1,1.3-3.6
		c0.1-0.3,0.2-0.6,0.3-0.7c0.4-0.4,0.5-0.3,0.3,0.3c-0.3,1.6-0.9,3.1-1.6,4.4C111.1,97,111,96.9,111.8,94.9z M110.1,112.2
		c0.1,0.6-0.1,1.2-0.5,1.5c-1.1,1-1.1,3.8-1.9,5.4c-1,2-5.2,15.3-5.9,15.6c-0.5,0.2-0.6,0-0.4-0.6c2.4-7.1,4.8-14.2,7.3-21.2
		C109.4,111,109.8,110.7,110.1,112.2z M101.9,121.1c0.5-1.4,1-4.4,2.1-6.1c0.3-0.4,0.3-0.3,0.1,0.1c-2.3,6.2-4.1,12.6-5.6,19.3
		l8.7-23.7c0.1-0.3,0.3-0.5,0.5-0.5c0.4,0,0.5,0.3,0.3,1.1c-1.8,5.2-5.5,15.9-11.3,32C92.3,145.6,99.7,126.9,101.9,121.1z
		 M101.8,181.4c-0.5,1-0.6,1.1-0.3,0.2c0.7-2.2,3-8.6,4.4-9.7c0.6-0.5,0.7-0.4,0.3,0.4C104.7,175.3,103.2,178.4,101.8,181.4z
		 M110,172.2c5.3-8.3,5.5-8.3,0.7,0.1l-4.8,9.3c-2,3.9-2.2,3.7-0.6-0.5C106.6,177.8,108.1,174.9,110,172.2z M104,191.5
		c-0.7,1.7-0.8,1.7-0.5-0.3c0.1-0.3,0.1-0.5,0.2-0.9c6.2-19.4,18.7-34.6,31.4-45.8c0.2-0.2,0.4-0.2,0.5-0.1c0.1,0.1,0.1,0.4,0,0.5
		C122.1,157.9,111.4,172.3,104,191.5z M107.8,187.9c-0.1,0.3-0.2,0.5-0.4,0.8c-1,1.3-1.2,1.1-0.5-0.5c2.5-6.4,5.2-12,8.4-16.8
		c7-10.7,15.2-20,24.7-28c2.9-2.4,3-2.3,0.3,0.4c-8.2,7.4-15.6,16-22,26c-1,4.3-3,7.6-5.9,9.8C110.4,182,109,184.8,107.8,187.9z
		 M143.2,152.1c1-1.2,1.1-1.1,0.4,0.5c-2.6,5.4-5.5,10.4-8.8,15.1c-1.5,2.5-10.8,17.2-11.3,15.8c-0.1-0.2,0-0.4,0.1-0.5l10.7-15.7
		c2.6-4.5,5.2-9,7.8-13.5C142.5,153.1,142.9,152.5,143.2,152.1z M112,188.3c-1,1-1.1,0.8-0.4-0.5c1.3-2.4,2.5-5.1,4.2-6.8
		c0.3-0.4,0.4-0.3,0.1,0.2C114.9,183,113.1,187.2,112,188.3z M113.7,198.9c-0.1-0.1,0-0.3,0.1-0.4c13.9-16.3,22.5-31.5,33-49
		c1.4-2.4,1.6-2.2,0.6,0.4c-0.1,0.2-0.2,0.4-0.3,0.5c-9.7,17.9-19.8,34.4-32.6,48.3C114.1,199.3,113.8,199.3,113.7,198.9z
		 M134.5,179.2c-2.7,4.3-5.5,8.4-8.4,12.4c-0.5,0.6-0.7,0.6-0.6,0.1c0.1-0.9,1.4-1.3,0.7-3.1c-2,2.9-4.2,5.6-6.5,8
		c-5.8,6.3-6,6-0.5-0.9c11.8-14.9,22.4-31.4,31.8-49.4c0.1-0.3,0.3-0.5,0.4-0.6c1.1-1.1,1.2-0.8,0.5,0.6c-5.1,10-10.6,19.7-16.3,29
		C136.5,177.5,135.3,177.9,134.5,179.2z M157.1,144.9c-3.5,7.7-7.4,15-11.6,22l-9.3,15.6c-0.1,0.1-0.3,0.1-0.3,0
		c-0.2-0.4,8.4-14.8,9.3-16.3c4-7,7.8-14.2,11.5-21.5c0.1-0.2,0.3-0.4,0.4-0.2C157.2,144.6,157.2,144.8,157.1,144.9z M158.1,106.7
		c-0.9,4.3-2.4,8.2-4.5,11.7c-1,1.7-2.4,3.1-4.3,4.3c-20,12.4-40.2,33.8-50.4,61.4c-0.3,0.8-0.9,1-1.8,0.7c-2.1,3.4-2.6,2.7-1.3-2.1
		c0.1-3.6,0.9-6.8,2.5-9.6c12.3-22.6,26.8-41.9,43.6-57.9c4.6-4.4,9.5-7.8,14.8-10.2C158.1,104.4,158.5,105,158.1,106.7z
		 M163.1,115.3c-2.7,4.6,0.1-4.7,0.2-0.9C163.3,114.7,163.2,115,163.1,115.3z M201.9,77.1l6.1-15.5c0.1-0.2,0.2-0.2,0.4-0.1l0,0
		c0.1,0.1,0.2,0.3,0.1,0.5l-6.1,15.5c-0.1,0.2-0.2,0.2-0.4,0.1l0,0C201.8,77.5,201.8,77.3,201.9,77.1z M186.5,118.5
		c1.5-3.8,4.2-12,4.6-11.5c0.1,0.1,0.1,0.2,0.1,0.4L187,119c-0.1,0.1-0.2,0.2-0.3,0.2l-0.3-0.1C186.4,119,186.4,118.7,186.5,118.5z
		 M169.9,175.4c0,0.2-0.2,0.3-0.3,0.3l-0.1,0c-0.1-0.1-0.2-0.3-0.2-0.5l2-11.3c0-0.2,0.2-0.3,0.3-0.3l0.1,0c0.1,0.1,0.2,0.3,0.2,0.5
		L169.9,175.4z M174,180.3c0-3.4,0.4-6.7,1.3-9.8l-0.3-0.8c-1.1,2.6-1.7,5.4-1.8,8.5c0,0.3-0.2,0.6-0.4,0.7
		c-2.3,0.5,4.2-20.6,4.8-22.1l0.8-3.2l1.8-4.6l0.7-2.8c2.1-6.9,4.5-13.5,7.4-19.9l0.8,0.3c4-8.7,6.9-18.9,10.2-27.1l-0.5-0.4
		l-7.2,18.3l-1.2,4.9c-0.1,0.3-0.2,0.6-0.4,0.7l-0.4,0.4c-0.7,0.6-0.8,0.4-0.5-0.6l2-5.5c5.3-15.5,11-30.7,17.1-45.6l10.2-25
		l0.8-2.5l0.5-1.1l1.4-2.9c0.2-0.3,0.4-0.5,0.7-0.4c0.4,0.2,0.6-0.3,0.4-1.3l0.7-3.2c1.9-4.2,2.5-4.1,1.8,0.4l-1.1,4.7
		c-14.9,36.7-28.9,74.2-41.9,112.3c-3,8.8-5.3,18-6.8,27.5C173.6,184.4,173.4,184.4,174,180.3z M177.1,177.8c-1.2,3.5-1.6,3.3-1-0.5
		c0-0.2,0.1-0.4,0.1-0.6c2.4-11.4,5.6-22.5,9.6-33c11.4-34.4,24.5-67.8,37.7-101c0.1-0.2,3.1-11.3,3.3-7.8c0,0.3,0,0.6-0.1,0.9
		c-4.1,11.8-8.4,23.6-12.8,35.2c-0.8,2-0.7,4.3-1.9,6.5c0.2,1,0,1.7-0.7,2.1l-2.6,4.9c0.8,1,0.7,2.1-0.5,3.2l-1,1.4l-2.5,4.8
		c-0.1,0.2-0.1,0.4,0,0.5l0.2,0.3c0.2,0.3,0.4,0.3,0.4-0.2c0-0.5,0.2-0.9,0.5-1.1c0.8-0.5,0.9-0.3,0.3,0.6c-0.6,0.9-4.1,5.8-3.5,6.6
		c0.2,0.3,0.2,0.7,0,1c-1,1.3-1.6,2.9-1.9,4.7c0.4,1.3,0.2,2.2-0.7,2.8l-2.8,5.6c2.1-1.5,2.3-1.2,0.7,1c-0.2,0.2-0.4,0.2-0.5-0.1
		c-0.1-0.2-0.2-0.3-0.3-0.4l-1.6,5.2c0.9,1.2,0.8,2.1-0.5,2.6l-2.1,4.4c-0.2,0.4-0.2,0.8-0.1,1.3c0.6,2.2-1.6,4.5-2.4,6.2l0.1,0.4
		c0.2-0.1,0.3-0.1,0.5,0c0.2,0.1,0.3,0.4,0.2,0.7l-1.3,2.9c-0.2,0.3-0.5,0.4-0.7,0.2c-0.4-0.4-0.5,0.1-0.4,1.5
		c0.4,1.3,0.3,2.4-0.4,3.5l-6.9,20.4c-0.1,1.8-0.5,3.4-1.2,4.9L177.1,177.8z M181.3,177.2c-0.6,2.3-0.8,2.3-0.6-0.2
		c0-0.5,0.1-0.9,0.2-1.3c1.1-3.4,2-6.8,3-10.3c7.4-24.2,15.8-47.7,24.9-70.7c0.2-1.1,0.4-2.1,0.8-3.1c7-17.4,13.2-35.2,18.7-53.6
		c0.1-0.2,0.2-0.2,0.3-0.1c1.7,1.6-17.4,51.7-19.4,56.9c-9,23.2-17.3,46.9-24.9,71L181.3,177.2z M234.6,135
		c-0.4,2.1-0.8,4.1-1.1,6.3c-0.2,1.5-0.4,1.5-0.5,0c-0.1-0.6,0-1.7,0.1-3.3c0-0.1,0-0.2,0.1-0.3C233.2,137.6,235.7,129.1,234.6,135z
		 M238.9,143.8c-0.1,0.8-0.2,1.7-0.5,2.4c-0.5,1.8-1,1.8-1.5,0l-0.2-0.7c-1.7-1.7,1.6-14.8,2.6-19.4c1.4-4.2,1.7-3.8,0.8,1.1
		l-1.9,8.4l0.3,1.8c1.2-5.6,2.5-11.1,3.8-16.7c0.4-1.6,1.1-0.5,0.9,0.5C241.7,128.7,239.7,136.2,238.9,143.8z M240.2,142
		c0-0.6,0.1-1.1,0.2-1.5c1.5-7.3,3.1-14.6,4.7-21.8c0.3-1.4,0.5-1.4,0.7,0.1c0.2,2-1,6.9-1.3,9.1c0.9,1.5,0.8,2.8-0.4,3.9
		c-1.1,3.4-2,6.9-2.7,10.5C240.3,146.8,239.9,146.7,240.2,142z M243.4,152.5c-1.2,0.1,2.2-14.5,2.5-15.8c1-4,1.9-10,2.8-17.9
		c0.1-1,0.4-1.3,0.8-1c0.2,0.1,0.3,0.4,0.3,0.7c-0.7,6.3-1.8,12.5-3.4,18.5l-2.8,15.2C243.6,152.3,243.5,152.5,243.4,152.5z
		 M277.7,125.7c3.1-7.7,6.8-14.7,11-21.2c0.4-0.8,0.8-1,1.5-0.5c1.7-1.3,2-0.9,1,1.3c-3.5,7.2-7.3,14.2-11.2,21l-0.9-0.1l-0.6,0.6
		C277.2,127.9,276.9,127.6,277.7,125.7z M291.1,109.3l-8.5,18.3c-0.1,0.2-0.3,0.2-0.4,0.1l-0.3-0.3c-0.1-0.1-0.2-0.3-0.1-0.5
		l8.5-18.3c0.1-0.2,0.3-0.2,0.4-0.1l0.3,0.3C291.1,108.9,291.1,109.1,291.1,109.3z M281.4,129.8l-8.4,21.6c-0.1,0.2-0.2,0.2-0.4,0.2
		l-0.1-0.1c-0.1-0.1-0.2-0.3-0.1-0.5l8.4-21.6c0.1-0.2,0.2-0.2,0.4-0.2l0.1,0.1C281.4,129.4,281.5,129.6,281.4,129.8z M266.8,166.8
		c-0.8,3.4-1.1,3.4-0.8-0.3l0.1-1c-1.1-1.3-1.2-2.9-0.3-4.9c0.2-1.2,2.4-10.7,3.3-10.2c0.2,0.1,0.2,0.4,0.2,0.6l-2.5,9.2l0.5,0.7
		c1.4-5,3-9.9,4.6-14.8c0.2-0.7,0.6-1.3,1-1.8c0.9-1.1,1.1-1,0.5,0.5C270.8,152,268.6,159.3,266.8,166.8z M272.8,165.4
		c4.7-19.8,13.8-39.4,22.2-56.6c0.2-0.3,0.3-0.4,0.4-0.1c0,0.2,0,0.5,0,0.6c-8.9,19.8-16.4,36-22.3,56.2
		C272,169.6,271.9,169.6,272.8,165.4z M315.6,134.2c0.6-0.8,1.2-1.3,1.4-1.1c0.2,0.2-0.2,1.1-0.8,2c-0.6,0.8-1.2,1.3-1.4,1.1
		C314.6,136,315,135.1,315.6,134.2z M317.4,136.8l-5.2,6.2l-2.8,3.6L298.3,161l-5.9,7.8c-0.5,0.6-0.6,0.5-0.4-0.4
		c0.2-0.9,5.2-6.8,6-7.9l11.2-14.4l2.8-3.6c0.4-0.6,5.4-7.7,5.6-6.2C317.6,136.5,317.5,136.7,317.4,136.8z M334.8,120.8l-3.5,4.4
		c-1.7,2.1-1.8,1.9-0.4-0.5c1-1.7,2.2-3.2,3.6-4.4C336.4,118.5,336.5,118.7,334.8,120.8z M323.2,114.4c-0.4,0.6-0.5,0.5-0.4-0.3
		c0-0.2,0.1-0.5,0.3-0.7C326.5,108.3,326.6,108.6,323.2,114.4z M326.1,115.3c1.4-2.3,3.1-4.4,4.9-6.1c1.2-1.5,2.4-2.9,3.7-4.1
		c3.8-3.4,3.9-3.2,0.3,0.6l-3.7,3.9l-4.7,6.3C323.4,120.2,323.2,120,326.1,115.3z M325.9,118.7c0.3-1,2.1-3.4,5.3-7
		c7.5-8.5,15.7-15.1,24.8-19.9c0.3-0.1,0.9-1,1.3-0.2c0.1,0.2,0,0.6-0.2,0.7c-11.4,6.2-21.5,15.3-30.2,27.2
		C326.5,120.1,325.2,121,325.9,118.7z M328,120.5c0.5-0.9,1-1.7,1.6-2.4c8.8-11.7,19-20.1,30.5-25.4c1.1-0.5,0.6,0.3,0.2,0.5
		c-6,3.2-11.7,7.2-17.1,12c0.8,1.5,0.4,2.4-1.1,2.9l-4,4.2c-1,1.1-1.2,0.9-0.5-0.6l0.2-0.5l-0.5-0.4l-8.8,10.7
		C326.7,123.5,326.5,123.3,328,120.5z M438.5,34.7c0-0.1,0.1-0.2,0.2-0.2c1.2-0.6-0.7,4-0.7,4.1c-3.1,9.3-6.4,18.4-9.9,27.3
		c-0.7,1.8-0.7,4.1-2.1,6c-0.2,0.3-0.3,0.6-0.3,1c0,1.6-0.3,3-1,4.4c0.1,1.1-0.3,1.9-1,2.5c-1.3,3.2-2.6,4.8-3.6,8.6
		c-0.4,1.5-1,3-1.7,4.3c0.5,1,0.3,1.8-0.5,2.2l-1.5,3.1c0.2,2.4-0.5,4.1-2,5c-0.1,1.1-0.4,2-1.1,2.8c0.6,1.4,0.5,2.5-0.5,3.2
		l-1.5,2.4l-1.5,3.2h0.3c0.5,0,0.6,0.3,0.4,0.9l-0.9,2.3c-0.3,0.8-0.7,1.1-1.3,0.7l-0.3,2.4c0.6,0.9,0.5,1.7-0.2,2.5l-1.3,1.4
		l-0.3,1.8l-0.5,2.5c-0.1,0.4-1.6,5.4-1.5,1.5l-0.5-0.4l-0.2-0.3c-0.3-0.4-0.3-1-0.1-1.5c9.1-25.5,16.4-45.1,21.9-58.8
		c5.4-13.5,9.5-24,12.2-31.6L438.5,34.7z M414.2,77l6-15.3c0.1-0.2,0.2-0.3,0.4-0.2l0.1,0.1c0.1,0.1,0.2,0.3,0.1,0.5l-6,15.3
		c-0.1,0.2-0.2,0.3-0.4,0.2l-0.1-0.1C414.2,77.4,414.2,77.2,414.2,77z M426.4,56.9l4.3-10.3c0.5-2,1.2-3.8,2.3-5.3l1-2.5
		c-0.1-1.5,0.4-2.5,1.3-3.2c0.2-0.8,0.5-1.5,0.9-2.2c1.3-2,1.7-1.7,1.1,0.9l-0.9,4.2c-10.6,27.9-21.9,55.5-32.7,86.3
		c-0.6,1.8-1.8,2.5-1.1-0.9l-0.5-0.7c-0.1,0.3-0.2,0.5-0.4,0.6c-0.6,0.4-0.7,0.2-0.4-0.6l3.6-10.5C411.5,93.8,418.7,75.1,426.4,56.9
		z M399,118.4c1.4-3.5,2.6-7.8,3.3-8.6c0.5-0.6,0.6-0.5,0.3,0.4l-3.1,8.5c-0.1,0.2-0.2,0.4-0.3,0.3L399,119
		C398.9,118.9,398.9,118.7,399,118.4z M375.9,135.1c1.3-0.9,2.5-1.4,2.6-1.1c0.1,0.3-0.9,1.2-2.2,2.1c-1.3,0.9-2.5,1.4-2.6,1.1
		C373.6,137,374.5,136,375.9,135.1z M359,148.2l6.4-5.2c6.7-5,6.9-4.9,0.5,0.4c-2,2-7,6.8-7.1,5.3
		C358.8,148.4,358.9,148.3,359,148.2z M297.1,211.3l13-20.7c0.1-0.2,0.3-0.2,0.4,0l0,0.1c0.1,0.1,0.1,0.4,0,0.5l-13,20.7
		c-0.1,0.2-0.3,0.2-0.4,0l0-0.1C297,211.7,297,211.4,297.1,211.3z M297.3,225.8c-0.2,0.4-0.3,0.4-0.4-0.1
		c-0.1-1.4,4.5-10.7,5.4-12.3l-0.8-0.1l-1.7,2.9c-3,5.3-3.2,5.1-0.5-0.4c3.6-7.5,7.8-14.1,12.7-20c5.1-7.4,10.6-14.1,16.5-20.3
		l6.9-7.4c0.5-0.6,5.2-6.3,5.3-5.3c0,0.2,0,0.4-0.2,0.5l-4.8,5.1l-6.4,7.4c-5.9,6.5-11.6,13.4-17,20.7l-1.1,1.8l0.3,0.7
		c9.9-13.1,20.4-25.2,31.5-36.4c0.3-0.3,1.2-0.5,1.1,0.4c0,0.2-0.1,0.4-0.3,0.6C326.2,181.3,309.6,201,297.3,225.8z M301.4,222
		c-1.7-0.6,12.3-21.7,13.6-23.4c9.5-12.6,19.5-24.2,30.2-34.8c0.8-0.8,2.7-1.1,0.4,1.2c-2.3,2.3-4.6,4.7-6.7,7.4
		c0.8,0.6,1.4,0.5,1.7-0.5c0.1-0.3,0.3-0.6,0.6-0.6c0.3-0.1,0.3,0,0.1,0.2c-5.1,5.8-10.3,11.6-15.4,17.4l-3.3,4.2
		c-0.5,1.5-1.3,2-2.5,1.5c-5.5,8-12.8,16.1-18.6,27.1C301.6,222,301.5,222.1,301.4,222z M303.8,227.2c-0.1,0.2-0.7,0.8-0.7,0
		c0-0.1,0-0.3,0.1-0.4c5.8-11.3,12.9-21.8,20.6-30.6c0.6-0.7,1.4-0.9,0.1,0.8C316.5,206.2,309.8,216.3,303.8,227.2z M308.1,226.5
		c-1.7,0.9-2,0.3-0.9-1.7c2.4-4.5,5-8.8,7.9-12.8c12.1-16.9,25.3-32,39.7-45.3c0.2-0.2,0.5-0.3,0.8-0.2c2.2,0.6,4.2,1.9,6,3.8
		c0.4,0.4,0.5,1,0.3,1.6c-1.6,5.7-4.1,10.7-7.3,14.9C340.9,204.2,325.4,217.4,308.1,226.5z M358.4,184.3c0.1,0.2-1,2.1-2.5,4.3
		c-1.5,2.2-2.9,3.8-3,3.6c-0.1-0.2,1-2.1,2.5-4.3C356.9,185.7,358.2,184.1,358.4,184.3z M351.6,208.4c0,1.3-0.4,2.3-1.2,2.8
		c-0.2,0.1-0.4,0-0.5-0.3c-0.1-0.3-0.3-0.5-0.6-0.5c-9,9-18.5,16.7-28.7,22.9c-0.4,0.2-0.4,0.2-0.1-0.1c0.9-0.8,2.5-2,4.7-3.6
		c11.8-8.2,23.3-19.1,34.3-32.9c0.2-0.2,0.4-0.5,0.5-0.8c1.5-2.4,1.4-0.7,0.7,0.5C358.1,200.9,355,204.9,351.6,208.4z M361.3,203.5
		l-4.4,5.8c-0.3,0.4-0.4,0.3-0.4-0.3c0.1-0.9,3.5-5,4.2-6C364.8,197.5,365,197.7,361.3,203.5z M364.2,186.1
		c-0.6,2.3-4.3,7.8-6.2,10.3c-9.1,12-19.3,21.8-30.7,29.4c0,0-1,1.3-0.8,0.2c0-0.2,0.2-0.4,0.3-0.5c10.3-8.5,21.1-17.6,29.6-29.4
		l-0.5-0.4l-4.6,5.4c-8.2,8.1-8.3,7.9-0.3-0.8l9.4-13.1c2-3.7,2.1-3.5,0.3,0.8l-2.9,4.9l0.3,0.8c2-2.5,3.7-5.3,5.4-8.3
		C364.1,184.4,364.6,184.7,364.2,186.1z M389,132.2c-9.9,4.7-19.2,11.1-27.9,19.1c-0.2,0.1-0.3,0-0.4-0.2l-0.1-0.4
		c-0.1-0.2,0-0.5,0.2-0.6c8.4-7.9,17.5-13.9,27.1-18.2c0.2-0.1,1-0.6,1.2-0.5C389.4,131.7,389.4,132,389,132.2z M382.2,175.3
		c0,0.2-0.2,0.3-0.3,0.3l-0.1,0c-0.1-0.1-0.2-0.3-0.2-0.5l2-11.4c0-0.2,0.2-0.3,0.3-0.3l0.1,0c0.1,0.1,0.2,0.3,0.2,0.5L382.2,175.3z
		 M386.7,182.6c-0.1,0.4-0.2,0.6-0.4,0.7c-0.2,0.1-0.4-0.1-0.4-0.4l0.7-7.2l-0.9-0.4c-0.4,3.6-0.8,4-1,1.3c-0.2-2.1,1.4-7.3,2-9.3
		l0.7-2.8l1.9-6l6-18.6c0.1-0.7,1.6-6.2,2.3-3.5h0.4c0.3-0.8,0.6-1.3,1.1-1.3c0.4,0,0.6,0.5,0.5,1
		C394.3,151.5,389.2,165.8,386.7,182.6z M390.4,174.6c-0.4,0.8-1.5,5.3-1.7,5.4c-0.2,0.1-0.5-0.2-0.4-0.5c1.3-7.6,3-15,5.3-22.2
		c2.1-6.6,4.3-13.3,6.6-20c0.7-1.9,1.3-1.9,1.9,0.1l0.1,0.3c0.1,0.4,0.1,0.8,0,1.2l-1.1,2.9c-0.1,0.4-0.3,0.6-0.4,0.5
		c-0.1-0.1-0.1-0.2-0.1-0.3c-0.1-0.5-0.1-0.6-0.3-0.2c-0.2,0.5-0.1,1.1,0.1,1.6c0.1,0.4,0.1,0.8,0,1.2c-3.1,8.5-5.8,17.1-8.3,25.9
		C391.8,171.4,391.3,172.7,390.4,174.6z M394.2,175.6c-0.1,0.2-0.1,0.4-0.2,0.6c-1.1,3.2-1.3,3-0.7-0.6c0.9-5,4.4-16.3,10.4-33.8
		c5.6-16.4,13.3-37.4,23.1-62.9c5.2-13.2,9.7-26.8,13.7-40.8c0.1-0.3,0.5-0.9,0.7-0.6c0.1,0.1,0.1,0.2,0.1,0.3
		c-3.8,14.3-8.5,28.1-13.9,41.4c-7.9,20.9-15.6,42-23.1,63.2C400.4,153.4,397.1,164.4,394.2,175.6z M446.9,134.6l-0.8,4.7
		c-0.3,1.9-0.5,1.9-0.5-0.1c0-1.7,0.3-3.3,1-4.7C447.4,130.8,447.5,130.8,446.9,134.6z M450.4,148.4c-0.3,2.2-1.2-2.9-1.4-3.2
		c-0.6-1.2-0.7-2.5-0.2-3.9l0.7-4.2l2.8-13.4c0-0.2,0.1-0.3,0.3-0.3c1.2,0-2.2,13.1-2.6,14.4c-0.3,9-0.1,9.4,0.6,1.1
		c0-0.2,0.1-0.5,0.1-0.7c1.4-5.6,2.8-11.2,4-16.9c0.3-1.2,0.6-1.4,0.8-0.6c0.1,0.3,0.1,0.7,0.1,1
		C453.5,130.5,451.8,139.4,450.4,148.4z M452.8,145.8c-0.3,3.2-0.5,3.2-0.7,0c0.9-6.5,2.1-13,3.6-19.3c1.5-6.5,1.9-6.4,1.3,0.4
		l-0.1,1c0.8,1.5,0.7,2.8-0.5,3.9c0.2,1.3-0.1,2.3-0.8,3c-0.2,0.2-0.3,0.4-0.3,0.7L452.8,145.8z M455.2,151.6
		c-0.2-0.4-0.3-0.9-0.2-1.3c2.6-10,4.6-20.2,6-30.6c0.1-0.5,0.2-0.9,0.3-1.2c0.5-1,0.7-0.9,0.6,0.3c-0.6,5.5-1.6,10.9-2.8,16.2
		c-1.4,5.9-2,11-2.9,16.8C456.2,152.7,455.8,152.7,455.2,151.6z M489.5,155.3c-1,3-1.1,2.9-0.4-0.2c0.2-0.8,0.4-1.7,0.8-2.7
		c1.1-3.4,6.9-19.7,7.7-18.8c0.1,0.1,0.1,0.3,0.1,0.5C494.6,140.9,491.9,148,489.5,155.3z M524.1,129.7c-0.2,0.8-0.4,1.4-0.7,1.7
		c-0.3,0.5-0.7,1-1.2,1.6c-4,5.1-4.4,4.6-1.2-1.5c1.8-3.5,3.6-7.1,5.4-10.7c0.2-0.3,0.4-1.4,0.8-1.2c0.2,0.1,0.2,0.4,0.1,0.6
		c-0.7,1.6-2.3,8.2-2.7,8.6C524.4,129.1,524.2,129.5,524.1,129.7z M530.5,119.5c0.2,0.1,0.3,0.4,0.2,0.7c-0.2,1-3.4,12.9-4.4,11.5
		c-0.1-0.1-0.1-0.3,0-0.4c1.5-3.3,2.7-6.8,3.6-10.5C530,120.4,530,119.2,530.5,119.5z M525.2,112.7l0.8-1.4c2.4-4.2,1.9,1.2,1.6,2.4
		c-2.3,8.3-6,16-10.9,23c-0.3,0.4-0.5,0.5-0.6,0c0-0.2,0-0.4,0.1-0.6l5.5-10.4c-3.2,3.2-3.3,2.5-0.3-1.9l2.6-7L525.2,112.7z
		 M522.4,112.3c0.1-0.3,0.1-0.5,0.2-0.7c0.5-0.7,0.6-0.6,0.4,0.3C521.7,116.2,521.5,116.3,522.4,112.3z M522.5,102.7
		c0.2-0.1,0.3-0.2,0.5-0.1c0.5,0.2,0.7,0.6,0.5,1.4c-3.3,14-13.6,35.3-25.1,37.6c-1.4,0.3-1.7-0.4-1-2.1
		C503.4,125,512.2,111.6,522.5,102.7z M494.3,123c3.5-7.2,8.4-16.2,14-21.4c0.1-0.1,0.9-0.3,0.4,0.3c-5,6.6-9.5,13.8-13.4,21.6
		c-0.3,0.6-0.6,0.9-1,0.2C494.2,123.5,494.2,123.2,494.3,123z M482.6,159.9c-0.1,0.2-0.2,0.4-0.3,0.3l-0.2-0.1
		c-0.1,0-0.1-0.3-0.1-0.5l1.5-8.5c-0.2,0-0.4,0-0.6,0.1c-0.4,0.2-0.9-0.2-0.9-0.8c0-1.7,0.7-2.5,2.2-2.4c0.4-1.2,2.7-7.7,3.3-7.9
		c0.5-0.2,0.6,0.1,0.4,0.6C485.7,146.8,483.9,153.2,482.6,159.9z M487,149.2c-0.1,0.3-0.4,0.4-0.6,0.3c-0.3-0.2-0.3-0.6-0.1-1.2
		c4.1-12.2,9.9-24.3,17.3-36.3c1.5-2.4,3-4.5,4.4-6.3c4.1-5,4.2-4.8,0.5,0.7c-3.2,4.7-6.3,9.7-9.2,14.8c0.4,0.3,0.8,0.4,1.1,0.1
		c0.4-0.3,0.5-0.1,0.3,0.4c-1.7,4-3.8,7.4-6.4,10.4C491.4,137.4,489,143.1,487,149.2z M524.3,209.5c0,0.2-0.2,0.3-0.3,0.3l-0.1,0
		c-0.1,0-0.2-0.2-0.2-0.4l1.7-16.5c0-0.2,0.2-0.3,0.3-0.3l0.1,0c0.1,0,0.2,0.2,0.2,0.4L524.3,209.5z M531.3,211.5l-0.5,2.5
		c-0.1,1.7-0.8,2.8-2,3.2l-0.1,3.9c0,0.3-0.2,0.4-0.3,0.4l-0.3-0.1c-0.1,0-0.1-0.3-0.2-0.6l-0.5-6c-1-5-0.7-10,0.8-14.8
		c0.7-5.2,1.7-10.2,3.1-15.1l0.5-2.1c0.2-0.8,1-6,1.5-5.8c0.2,0.1,0.3,0.3,0.2,0.5c-0.6,1.6-0.5,2.9,0.1,4c0.3-1,1.4-6.1,2.2-5.7
		c0.2,0.1,0.3,0.5,0.2,0.7c-3.1,11.4-5.3,23-6.7,35l1.1,0.1l0.3-1.4c1.2-11.4,3.4-22.5,6.6-33.2c0.1-0.3,0.4-0.5,0.6-0.4
		c0.6,0.2-1.8,9.2-2,10.3c1.1,1.6,0.9,3-0.6,4.3C533.5,197.7,532.2,204.5,531.3,211.5z M534.7,197.3c0.1,0.1,0.1,0.3,0.1,0.4
		C533.9,203.2,533.9,196.3,534.7,197.3z M537.2,201c-1.3,6-2.1,12.1-2.4,18.3c0,0.3-0.1,0.6-0.2,0.8c-0.3,0.4-0.5,0.3-0.4-0.3
		c0.1-6.6,1-12.9,2.5-19.1c0.2-1.4,2.7-14.8,3.6-14.4c0.1,0,0.1,0.2,0.1,0.3L537.2,201z"/>
	<path class="st0" d="M110.7,43.2c1.2-8.2-0.3-15.3-4.4-21.3c-2.1-3.1-4-8.3-6.7-9.9C88.3,4.9,62.6,43.4,55.3,55.2
		c-12,19.7-22.7,40.8-32.1,63.2c-0.2,0.4-0.5,0.7-0.8,0.8c-5.3,1.3-17.6,5.7-17.6,15.8c0,0.3,0.1,0.7,0.2,0.9l1,2
		c0.2,0.4,0.3,1,0.1,1.5c-1.1,3.9-0.4,6.6,1.9,8.1c0.4,0.3,1.5,0.6,3.2,0.9c0.6,0.1,1,1,0.9,1.8c-0.4,3.3-0.9,8.6-1.5,15.7
		c-0.5,6,0.1,11.3,1.8,15.9c0.1,0.3,0.4,0.6,0.6,0.8c2.6,1.3,4.7,3.5,6.3,6.6c0.4,0.8,1.2,0.9,1.7,0.2l3.5-4.5
		c0.5-0.6,0.5-1.8,0-2.4l-1.4-1.7c-0.4-0.4-0.5-1.2-0.3-1.8c2.1-7.6,9.8-39.3,14.2-41.6c10.1-5.2,20.2-8.8,30.3-10.8
		c0.8-0.2,1.5,1,1.2,2.1c-5.3,19.6-11.5,38.5-16.1,58.4c-1.4,5.8-2.2,15.8,1.2,20.7c0.2,0.3,0.6,0.5,0.9,0.5c2.2-0.3,3.3,1,3.4,3.9
		c0,0.7,0.4,1.3,0.8,1.4c0.9,0.3,1.7,0.3,2.5-0.2c1.8-1.2,4.7-11.2,5.5-14.1c9.4-36.8,20.1-72.8,32.1-108.1
		C104.4,74.8,108.4,58.6,110.7,43.2z M101,48.3c1.9-6.7,2.1-6.6,0.7,0.3c-0.4,2-0.9,4-1.5,6.1C95,73.5,89.4,92,83.3,110.2
		c-0.1,0.3-0.3,0.3-0.5,0.1l-0.2-0.3c-0.1-0.2-0.2-0.5-0.1-0.7C88.8,89.8,95,69.5,101,48.3z M86.2,108.5c-0.2,0.6-1,5.2-1.6,4.6
		c-0.1-0.1-0.1-0.3-0.1-0.5c0.2-0.6,1.1-4.8,1.5-4.8C86.2,107.9,86.3,108.2,86.2,108.5z M97.9,51.7c0-0.4,0.2-0.8,0.5-0.9l0.4-0.2
		c0.2-0.1,0.2,0.3-0.1,1.2l-1.2,3.5l-1.1,3.9c-3.9,15-8.3,29.7-13.2,44.1c-1.6,5.1-1.8,5.1-0.7,0l13.6-44.5l0.9-4.3
		C97.6,53.7,97.9,52.7,97.9,51.7z M79.1,104.2c-0.1,0.2-0.2,0.3-0.4,0.2l0,0c-0.1-0.1-0.2-0.3-0.2-0.5L87.1,76
		c0.1-0.2,0.2-0.3,0.4-0.2l0,0c0.1,0.1,0.2,0.3,0.2,0.5L79.1,104.2z M91.7,39.4c0.6-0.8,2.1-1.9,2.9-2.3c1.6-1,2.1-0.3,1.5,2
		c-5.8,21.4-12,42.4-18.9,63.1c-0.2,0.6-0.7,1-1.2,0.9c-1.7-0.4-3.2-1.2-4.9-1.2c-6.9,0-13.6,1.5-20.2,4.4c-1.7,0.8-2.1,0.1-1-2
		C62.2,80.6,76.2,59,91.7,39.4z M48.3,116.7c-0.2,0-0.4,0-0.7,0l-2.3,0.9c-0.7,0.3-0.8,0-0.4-0.8c0.4-0.7,1-0.9,1.8-0.8
		c1.3-0.4,2.6-0.2,3.8,0.7c0.2,0.2,0.5,0.2,0.8,0.1c5-2.1,10-3.6,15.2-4.4c1.6-0.3,0.2,0.9,0.1,1c-6.8,1.9-13.5,4.2-20.2,6.9
		c-4.3,1.3-4.7,1.2-1.4-0.5l3.3-1.6C49.8,117.6,49.8,117,48.3,116.7z M13.8,133.3l0.5-0.1c2.7-0.8,2.9-0.3,0.4,1.5
		c-0.8,0.6-1.6,1.1-2.4,1.6c-1.1,0.6-1.4,0.3-0.9-1C11.1,131.1,11.9,130.5,13.8,133.3z M10.2,127.3c0.1-0.1,0.2-0.1,0.3,0l0.2,0.3
		c0.1,0.2,0.1,0.4-0.1,0.5C7,130.9,6.9,130.6,10.2,127.3z M14.6,136.8c1.4-0.7,1.8-0.5,1.1,0.7c-0.1,0.2-0.3,0.4-0.6,0.5
		C7.6,140.8,7.4,140.4,14.6,136.8z M12.9,161.6c-0.5,4.1-0.6,4.1-0.5,0c0.1-1.1,1-9.3,1.8-9.3c0.2,0,0.4,0.3,0.3,0.6L12.9,161.6z
		 M16.2,176.8c-0.5,1.2-0.7,1.1-0.7-0.3v-5.1c-1-1-1.4-2-1-3.1c0.4-1,0.6-1,0.6,0.2c0,1,0.1,2,0.4,2.9c2.4-2.9-0.5-4.9,0-7.5
		c1.2-7.4,2.3-12.5,3.4-15.3c1.2-3.4,1.3-0.4,0.9,0.5c-1.2,3-1.8,6.2-1.7,9.6c1.3-3.9,2.4-7.8,3.3-11.6c0.6-2.5,1-2.9,1.3-1.4
		c0.1,0.3,0.1,0.6,0,0.9l-4.4,18C17.4,168.1,17.2,174.2,16.2,176.8z M21.9,162.4l-0.2,0.6l-2.7,7.7l-0.8,3.9
		c-0.1,0.3-0.2,0.4-0.4,0.4c-0.7-0.2,0.3-3.8,0.7-5.1c1.3-8.2,3.1-16.1,5.5-23.7c0.3-0.9,0.7-1.6,1.2-2c1.1-0.8,1.4-0.4,0.8,1.1
		l-1.4,3.5c-0.2,0.5-0.2,1.2,0.1,1.7c0.5,0.9,0.4,1.8-0.2,2.6l-0.8,1.9l-0.1,0.8C23.7,158.3,23.2,160.5,21.9,162.4z M23.6,167.9
		c-1,4.3-1,3.9-0.1-1.2l3-10.6c0.1-0.2,0.2-0.4,0.3-0.4l0.1,0c0.1,0,0.1,0.1,0.1,0.3C26.4,160.3,25.2,164.2,23.6,167.9z M35.9,111.8
		c-0.1,0.1-0.1,0.2-0.2,0.2c-0.4,0.1-0.4-0.7-0.2-1c8.8-21.7,18.5-39.7,34-61.7l3.3-4.3l4.7-5.8c0.8-1,3.7-5.2,4.5-5.4
		c1.8-0.6-4,5.7-4.2,5.9l-4.4,5.8l-3.3,4.3C57.1,68.9,45.8,89.5,35.9,111.8z M38.8,110.4c-0.1-0.1-0.1-0.3,0-0.4
		c10.1-24.5,23-46.9,38.7-67.2c0.9-1.1,1.7-2.1,2.5-2.9c2.4-2.4,2.5-2.2,0.4,0.6c-2.1,2.8-4.3,5.6-6.4,8.5
		c-13.1,17.5-24.6,39.6-34.7,61.3C39,110.6,38.9,110.6,38.8,110.4z M65,117.4c-6.1,1.5-12.1,3.6-18,6.5c7.5-0.7,7.4-0.2-0.3,1.4
		l-2,0.4l-0.6,0.5c-1.1,1.7-2.2,1.5-3.3-0.5c0.4-3.3,18.3-8.4,21.1-9.1c0.9-0.3,1.9-0.5,2.9-0.6C71.6,115.4,71.7,115.8,65,117.4z
		 M54.1,190.4c-0.5,1.9-0.7,0-0.6-0.8c2-9.1,4.3-18.1,6.9-26.9l1.4-4.7c0.7-2.8,8-29.1,8.9-28.9c0.2,0,0.3,0.3,0.2,0.6l-8.7,28.4
		l-1.4,4.7C58.6,172,56.3,181.2,54.1,190.4z M58.1,198.2c-0.1,0.6-1.1,5.5-1.6,2.4c-1.5,0.5-2,0.2-1.4-0.9c5.2-24,11.6-47.4,19.2-70
		c0.5-2.8,0.8-2.7,0.9,0.4l0.8,0.3c0.7,0.7,0.7,1.5,0,2.4l-0.5,1.2L58.1,198.2z M59.3,202.7c-0.1,0.3,0.1,1.7-0.4,1.3
		c-0.1-0.1-0.2-0.3-0.2-0.6c0.5-3.2,1.2-6.3,2-9.3c4.5-17.7,9.3-35.3,14.3-52.7c1.7-5.7,2.9-9.2,3.7-10.6c0.6-1.1,0.7-0.9,0.2,0.8
		C71.8,155,65.3,178.7,59.3,202.7z M96.5,90l-3.1,10.2l-2.2,7.9c-8.6,29.4-17.2,58.8-25.7,88.2c-0.4,1.2-0.7,2.3-1,3.1
		c-0.9,2.3-1.1,2.2-0.4-0.3c8.2-30.9,17.1-61.4,26.6-91.4l2.5-7.9l3.1-10.2C98.6,80.9,98.7,81.1,96.5,90z"/>
	<path class="st0" d="M300.8,87.4c1.9,0,1.4,8.9,4.3,3.1c-1-1.5-0.8-3,0.6-4.5c0.3-0.9,0.7-1.7,1.3-2.2c0.1-0.1,0.3-0.2,0.4-0.2
		c0,0,0,0,0.1,0c-0.1,0-0.2,0.1-0.3,0.1c-0.6,0.6-1,1.3-1.3,2.2c-1.4,1.5-1.6,3-0.6,4.5l2.4-3.6l-0.1-0.2l9.2-13.3
		c1.1-1.6,1.6-3.5,1.6-5.8c0-1.6-0.7-2.7-2.1-3.2l0-0.1c-0.3-2.1-0.9-2.5-1.8-1.1c0.4-0.1,0.7,0.1,0.8,0.4c0.1,0.3,0.1,0.6,0,0.9
		l-8.9,14.3l-0.3-0.1l7.8-14.4c-0.5,0.4-0.7,0.3-0.8-0.4l-0.7,0.8l-0.1-0.1L313,64c1.5-1.6,1.8-3.6,0.9-5.9
		c-0.2-0.4-0.4-0.7-0.8-0.7c-6.2-1-14.9,21.4-13.3,29C300,87,300.4,87.4,300.8,87.4z M310.8,78.8l5.8-9.8c0.1-0.1,0.2-0.2,0.3-0.1
		c0,0-0.1,0-0.1,0.1l-5.8,9.8c-0.1,0.2-0.1,0.4,0,0.6l0.1,0.1c0,0,0.1,0,0.1,0c-0.1,0.1-0.2,0.1-0.3,0l-0.1-0.1
		C310.7,79.3,310.7,79,310.8,78.8z M305,68.5c0.4-1.1,0.9-2.1,1.7-3.1c1.1-1.5,1.6-2,1.6-1.6c-0.2,0.2-0.7,0.8-1.3,1.6
		c-0.8,1-1.3,2.1-1.7,3.1c-0.3,1-0.5,1.7-0.5,2C304.3,70.9,304.4,70.3,305,68.5z M302.3,84l1.4-4.9c-0.4-1.1-0.2-2,0.7-2.5l1.1-1.7
		c-0.4-1-0.3-1.7,0.5-2.2l3.6-6l1.4-2.2c0.2-0.3,0.5-0.4,0.7-0.3c-0.2,0-0.4,0.1-0.5,0.3l-1.4,2.2l-3.6,6c-0.8,0.5-0.9,1.2-0.5,2.2
		l-1.1,1.7c-0.9,0.5-1.1,1.4-0.7,2.5l-1.4,4.9c-0.1,0.3-0.1,0.5,0,0.8c0.1,0.2,0.2,0.4,0.3,0.4c-0.2,0.1-0.4,0-0.5-0.4
		C302.2,84.6,302.2,84.3,302.3,84z"/>
</g>
</svg>
